<svg height="511pt" viewBox="-95 1 511 511.999" width="511pt" xmlns="http://www.w3.org/2000/svg"><path d="M154.77 167.27a7.497 7.497 0 01-7.454-6.754L136.172 48.672a7.498 7.498 0 1114.922-1.492l11.144 111.847a7.497 7.497 0 01-6.715 8.207 8.242 8.242 0 01-.753.036zm0 0" fill="#eceff1"/><path d="M268.816 334.703h-63.285a7.83 7.83 0 01-7.832-7.828v-26.621a7.831 7.831 0 017.832-7.832h63.285a7.83 7.83 0 017.829 7.832v26.621a7.827 7.827 0 01-7.829 7.828zm0 0" fill="#ffe0b2"/><path d="M268.816 376.984h-63.285a7.83 7.83 0 01-7.832-7.828v-26.62a7.834 7.834 0 017.832-7.833h63.285a7.83 7.83 0 017.829 7.832v26.621a7.827 7.827 0 01-7.829 7.828zm0 42.286h-63.285a7.834 7.834 0 01-7.832-7.833v-26.62a7.83 7.83 0 017.832-7.829h63.285a7.827 7.827 0 017.829 7.828v26.622a7.83 7.83 0 01-7.829 7.832zm0 0" fill="#ffe0b2"/><path d="M268.816 461.55h-63.285a7.834 7.834 0 01-7.832-7.831v-26.621a7.83 7.83 0 017.832-7.828h63.285a7.827 7.827 0 017.829 7.828v26.62a7.828 7.828 0 01-7.829 7.833zm-151.539-84.566H53.992a7.827 7.827 0 01-7.828-7.828v-26.62a7.83 7.83 0 017.828-7.833h63.285a7.834 7.834 0 017.832 7.832v26.621a7.83 7.83 0 01-7.832 7.828zm0 42.286H53.992a7.83 7.83 0 01-7.828-7.833v-26.62a7.827 7.827 0 017.828-7.829h63.285a7.83 7.83 0 017.832 7.828v26.622a7.834 7.834 0 01-7.832 7.832zm0 0" fill="#ffe0b2"/><path d="M117.277 461.55H53.992a7.83 7.83 0 01-7.828-7.831v-26.621a7.827 7.827 0 017.828-7.828h63.285a7.83 7.83 0 017.832 7.828v26.62a7.831 7.831 0 01-7.832 7.833zm0-326.534H53.992a7.83 7.83 0 01-7.828-7.832v-26.621a7.83 7.83 0 017.828-7.833h63.285a7.834 7.834 0 017.832 7.832v26.622a7.834 7.834 0 01-7.832 7.832zm0 0" fill="#ffe0b2"/><path d="M117.277 177.297H53.992a7.83 7.83 0 01-7.828-7.832v-26.621a7.827 7.827 0 017.828-7.828h63.285a7.83 7.83 0 017.832 7.828v26.62a7.834 7.834 0 01-7.832 7.833zm0 0" fill="#ffe0b2"/><path d="M117.277 219.578H53.992a7.83 7.83 0 01-7.828-7.832v-26.621a7.827 7.827 0 017.828-7.828h63.285a7.83 7.83 0 017.832 7.828v26.621a7.834 7.834 0 01-7.832 7.832zm0 0" fill="#ffe0b2"/><path d="M117.277 261.86H53.992a7.827 7.827 0 01-7.828-7.829v-26.625a7.827 7.827 0 017.828-7.828h63.285c4.325 0 7.832 3.508 7.832 7.828v26.625a7.83 7.83 0 01-7.832 7.828zm0 0" fill="#ffe0b2"/><path d="M117.277 304.14H53.992a7.827 7.827 0 01-7.828-7.827V269.69a7.83 7.83 0 017.828-7.832h63.285a7.834 7.834 0 017.832 7.832v26.622a7.83 7.83 0 01-7.832 7.828zm0 0" fill="#ffe0b2"/><path d="M188.926 181.75c0 17.621-14.285 31.91-31.91 31.91-17.621 0-31.907-14.289-31.907-31.91s14.286-31.91 31.907-31.91c17.625 0 31.91 14.289 31.91 31.91zm0 0" fill="#90a4ae"/><path d="M167.242 151.523a31.86 31.86 0 011.684 10.227c0 17.621-14.285 31.91-31.906 31.91a31.86 31.86 0 01-10.227-1.683c4.262 12.601 16.18 21.683 30.227 21.683 17.62 0 31.906-14.289 31.906-31.91 0-14.047-9.078-25.96-21.684-30.227zm0 0" fill="#607d8b"/><path d="M283.23 461.55H39.578c-14.812 0-26.824 12.009-26.824 26.821v14.164A9.465 9.465 0 0022.219 512h278.37c5.227 0 9.462-4.238 9.462-9.465v-14.164c0-14.812-12.008-26.82-26.82-26.82zm0 0" fill="#e57373"/><path d="M283.23 461.55h-14.054c.57 2.18.875 4.466.875 6.821v6.664c0 5.227-4.235 9.465-9.461 9.465H13.04a26.917 26.917 0 00-.282 3.871v14.164a9.46 9.46 0 009.46 9.461H300.59a9.46 9.46 0 009.46-9.46V488.37c0-14.812-12.007-26.82-26.82-26.82zm0 0" fill="#f44336"/><path d="M143.902 50.45H27.372C12.531 50.45.5 38.417.5 23.577V6.207A6.205 6.205 0 016.707 0h157.86a6.207 6.207 0 016.206 6.207v17.371c0 14.84-12.03 26.871-26.87 26.871zm0 0" fill="#e57373"/><path d="M164.566 0h-33.793v3.578c0 14.84-12.03 26.871-26.87 26.871H1.39c3.035 11.512 13.515 20 25.98 20h116.531c14.84 0 26.871-12.031 26.871-26.87V6.206A6.207 6.207 0 00164.566 0zm0 0" fill="#f44336"/><path d="M117.277 92.73H53.992a7.827 7.827 0 01-7.828-7.828v-26.62a7.828 7.828 0 017.828-7.833h63.285a7.834 7.834 0 017.832 7.832v26.621a7.83 7.83 0 01-7.832 7.828zm0 0" fill="#ffe0b2"/><g fill="#ffb74d"><path d="M117.277 50.45H95.11v.925c0 11.797-9.562 21.355-21.359 21.355H46.164v12.172a7.827 7.827 0 007.828 7.828h63.285a7.83 7.83 0 007.832-7.828v-26.62a7.831 7.831 0 00-7.832-7.833zm0 0"/><path d="M117.277 92.73H95.11v.926c0 11.797-9.562 21.36-21.359 21.36H46.164v12.168a7.83 7.83 0 007.828 7.832h63.285a7.834 7.834 0 007.832-7.832v-26.621a7.834 7.834 0 00-7.832-7.833zm0 0"/><path d="M117.277 135.016H95.11v.922c0 11.796-9.562 21.359-21.359 21.359H46.164v12.168a7.83 7.83 0 007.828 7.832h63.285a7.834 7.834 0 007.832-7.832v-26.621a7.83 7.83 0 00-7.832-7.828zm0 0"/><path d="M117.277 177.297H95.11v.926c0 11.793-9.562 21.355-21.359 21.355H46.164v12.168a7.828 7.828 0 007.828 7.832h63.285a7.834 7.834 0 007.832-7.832v-26.621a7.83 7.83 0 00-7.832-7.828zm0 42.281H95.11v.926c0 11.793-9.562 21.355-21.359 21.355H46.164v12.172a7.827 7.827 0 007.828 7.828h63.285a7.83 7.83 0 007.832-7.828v-26.625c0-4.32-3.507-7.828-7.832-7.828zm0 0"/><path d="M117.277 261.86H95.11v.925c0 11.793-9.562 21.356-21.359 21.356H46.164v12.171a7.827 7.827 0 007.828 7.829h63.285a7.83 7.83 0 007.832-7.829v-26.62a7.834 7.834 0 00-7.832-7.833zm0 72.843H95.11v.926c0 11.797-9.562 21.355-21.359 21.355H46.164v12.172a7.827 7.827 0 007.828 7.828h63.285a7.83 7.83 0 007.832-7.828v-26.62a7.834 7.834 0 00-7.832-7.833zm0 0"/><path d="M117.277 376.984H95.11v.926c0 11.797-9.562 21.36-21.359 21.36H46.164v12.167a7.83 7.83 0 007.828 7.833h63.285a7.834 7.834 0 007.832-7.833v-26.62a7.834 7.834 0 00-7.832-7.833zm0 0"/><path d="M117.277 419.27H95.11v.921c0 11.797-9.562 21.36-21.359 21.36H46.164v12.168a7.828 7.828 0 007.828 7.832h63.285a7.834 7.834 0 007.832-7.832v-26.621a7.83 7.83 0 00-7.832-7.828zm151.539-84.567h-22.171v.926c0 11.797-9.563 21.355-21.356 21.355H197.7v12.172a7.83 7.83 0 007.832 7.828h63.285a7.827 7.827 0 007.829-7.828v-26.62a7.83 7.83 0 00-7.829-7.833zm0 0"/><path d="M268.816 292.422h-22.171v.926c0 11.793-9.563 21.355-21.356 21.355H197.7v12.172a7.83 7.83 0 007.832 7.828h63.285a7.827 7.827 0 007.829-7.828v-26.621a7.83 7.83 0 00-7.829-7.832zm0 84.562h-22.171v.926c0 11.797-9.563 21.36-21.356 21.36H197.7v12.167a7.834 7.834 0 007.832 7.833h63.285a7.83 7.83 0 007.829-7.833v-26.62a7.83 7.83 0 00-7.829-7.833zm0 0"/><path d="M268.816 419.27h-22.171v.925c0 11.793-9.563 21.356-21.356 21.356H197.7v12.172a7.83 7.83 0 007.832 7.828h63.285a7.827 7.827 0 007.829-7.828v-26.625a7.827 7.827 0 00-7.829-7.828zm0 0"/></g><path d="M295.438 292.422H178.906c-14.84 0-26.87-12.031-26.87-26.871v-9.871a6.21 6.21 0 016.206-6.207h157.86a6.21 6.21 0 016.207 6.207v9.87c0 14.84-12.032 26.872-26.871 26.872zm0 0" fill="#e57373"/><path d="M316.102 249.473H282.02c-1.899 12.98-13.075 22.949-26.582 22.949H152.926c3.039 11.512 13.52 20 25.984 20h116.528c14.84 0 26.87-12.031 26.87-26.871v-9.871a6.205 6.205 0 00-6.206-6.207zm0 0" fill="#f44336"/><path d="M140.09 334.703H31.18c-6.598 0-11.946-5.348-11.946-11.945v-6.668c0-6.598 5.348-11.95 11.946-11.95h108.91c6.597 0 11.945 5.352 11.945 11.95v6.668c.004 6.597-5.347 11.945-11.945 11.945zm0 0" fill="#e57373"/><path d="M140.09 304.145h-28.227c.106.632.172 1.28.172 1.945v6.668c0 6.597-5.347 11.945-11.945 11.945H19.406c.93 5.672 5.84 10 11.774 10h108.91c6.597 0 11.945-5.348 11.945-11.945v-6.668c.004-6.598-5.347-11.945-11.945-11.945zm0 0" fill="#f44336"/></svg>