<svg height="512" viewBox="0 0 512.023 512.023" width="512" xmlns="http://www.w3.org/2000/svg"><path d="M256.012 298.464c-88.418 0-160.353 71.934-160.353 160.353v37.207c0 8.836 7.164 16 16 16h288.705c8.836 0 16-7.164 16-16v-37.207c0-88.419-71.934-160.353-160.352-160.353z" fill="#eaeaea"/><path d="M232.754 78.862L137.788 6.939C115.444-9.983 83.36 5.973 83.36 33.994v133.903c0 8.915 7.248 16 16 16 6.394 0-2.461 4.314 132.13-78.66 9.539-5.881 10.252-19.567 1.264-26.375zM374.235 6.939L279.27 78.862c-8.934 6.767-8.333 20.458 1.264 26.375 134.432 82.875 125.66 78.66 132.13 78.66 8.75 0 16-7.085 16-16V33.994c-.001-28.031-32.092-43.97-54.429-27.055z" fill="#e0e0e0"/><path d="M83.36 98.025v69.872c0 12.494 13.741 20.189 24.396 13.62l123.733-76.279c9.539-5.88 10.252-19.567 1.264-26.375l-52.482-39.748c-36.874 11.611-70.087 31.659-96.911 58.91zm332.759 351.988c-4.586-84.34-74.643-151.549-160.108-151.549s-155.52 67.209-160.107 151.549c94.212 60.434 223.07 62.316 320.215 0z" fill="#d3d1d1"/><path d="M406.032 402.199c-22.932-60.56-81.524-103.735-150.02-103.735s-127.088 43.175-150.02 103.735c86.059 66.906 213.427 67.336 300.04 0z" fill="#999"/><path d="M428.663 98.025c-26.799-27.226-60.003-47.288-96.911-58.91L279.27 78.862c-8.934 6.767-8.333 20.458 1.264 26.375l123.733 76.279c10.635 6.558 24.396-1.104 24.396-13.62z" fill="#d3d1d1"/><path d="M463.87 320.123l-26.168-105.604c-5.928-42.125-26.742-80.374-58.672-107.784C275.92 18.224 95.055 67.2 74.322 214.519L48.154 320.123c-3.382 13.649 11.32 24.748 23.524 17.708 16.621-9.586 29.771-9.893 43.693-.931 39.986 45.508 60.972 80.25 140.641 80.25 77.324 0 97.757-31.463 140.744-80.367 16.624-11.306 32.104-5.352 43.794 1.164 12.195 6.797 26.68-4.264 23.32-17.824z" fill="#e0e0e0"/><path d="M454.247 281.289a15.993 15.993 0 01-13.697-.886c-11.689-6.515-27.17-12.47-43.794-1.164-40.045 45.557-61.019 80.367-140.744 80.367-79.681 0-100.764-34.867-140.641-80.25-13.922-8.962-27.072-8.656-43.693.931a15.995 15.995 0 01-13.901 1l-9.624 38.836c-3.382 13.649 11.32 24.748 23.524 17.708 16.621-9.586 29.771-9.893 43.693-.931 40.014 45.54 61.012 80.25 140.641 80.25 79.79 0 100.852-34.984 140.744-80.367 16.624-11.306 32.104-5.352 43.794 1.164 12.195 6.797 26.681-4.264 23.32-17.824z" fill="#d3d1d1"/><path d="M311.506 290.799c-30.732-24.416-80.249-24.422-110.989 0-31.104 24.712-31.105 64.953 0 89.665 30.732 24.416 80.249 24.422 110.989 0 31.105-24.712 31.105-64.953 0-89.665z" fill="#f9f9f9"/><g fill="#3d3c3c"><circle cx="202.586" cy="232.571" r="19.841"/><circle cx="309.438" cy="232.571" r="19.841"/><path d="M296.19 328.297h-15c-5.062 0-9.179-4.118-9.179-9.179v-2.151l9.064-13.111c6.203-8.972-.219-21.218-11.126-21.218h-27.877c-10.907 0-17.328 12.246-11.126 21.218l9.064 13.111v2.151c0 5.061-4.117 9.179-9.178 9.179h-15c-8.836 0-16 7.164-16 16s7.164 16 16 16c15.898 0 27.14 1.48 40.178-8.629 12.982 10.065 24.384 8.629 40.179 8.629 8.837 0 16-7.164 16-16s-7.162-16-15.999-16zM16.027 299.909c-16.148.001-22.132-21.352-8.275-29.706 41.096-24.772 86.941-30.568 136.266-17.231 8.53 2.307 13.575 11.092 11.269 19.622-2.307 8.53-11.091 13.574-19.622 11.269-41.149-11.127-77.587-6.632-111.392 13.747a15.939 15.939 0 01-8.246 2.299zm239.985-101.406c-8.836 0-16-7.164-16-16V78.945c0-8.836 7.164-16 16-16 8.837 0 16 7.164 16 16v103.559c0 8.836-7.163 15.999-16 15.999zm-67.267-35.292c-8.836 0-16-7.164-16-16V93.125c0-8.836 7.164-16 16-16s16 7.164 16 16v54.085c0 8.837-7.164 16.001-16 16.001zm128.989 3.814c-8.837 0-16-7.164-16-16V93.996c0-8.836 7.163-16 16-16s16 7.164 16 16v57.029c0 8.837-7.163 16-16 16zM77.912 398.337c-12.184 0-20.005-13.256-13.865-23.963 15.795-27.539 41.197-53.288 75.501-76.533 7.316-4.958 17.265-3.044 22.221 4.271 4.957 7.315 3.045 17.264-4.271 22.221-30.239 20.49-52.341 42.683-65.693 65.962-2.956 5.155-8.348 8.042-13.893 8.042zm418.084-98.428c-2.813 0-5.66-.742-8.244-2.299-33.806-20.378-70.244-24.874-111.393-13.747-8.528 2.307-17.314-2.738-19.622-11.269-2.307-8.53 2.738-17.315 11.269-19.622 49.326-13.337 95.173-7.541 136.266 17.231 13.836 8.341 7.905 29.705-8.276 29.706zm-61.884 98.428c-5.546 0-10.937-2.887-13.894-8.042-13.353-23.279-35.455-45.472-65.694-65.962-7.315-4.957-9.227-14.906-4.27-22.221 4.955-7.314 14.904-9.228 22.221-4.271 34.304 23.245 59.706 48.994 75.501 76.533 6.144 10.71-1.686 23.963-13.864 23.963z"/></g></svg>