<svg xmlns="http://www.w3.org/2000/svg" width="512" height="512"><path d="M184 140a12 12 0 10-12 12 12.013 12.013 0 0012-12zm60 12a12 12 0 10-12-12 12.013 12.013 0 0012 12zm-36 48a24.028 24.028 0 0024-24h-16a8 8 0 01-16 0h-16a24.028 24.028 0 0024 24zm-73.412 192a22.412 22.412 0 00-22.557 24.7 25.682 25.682 0 0025.381 23.3 22.412 22.412 0 0022.557-24.7 25.682 25.682 0 00-25.381-23.3zm7.8 29.934a6.635 6.635 0 01-4.98 2.066 9.819 9.819 0 01-9.443-8.7 6.748 6.748 0 011.639-5.231 6.635 6.635 0 014.98-2.066 9.819 9.819 0 019.443 8.7 6.748 6.748 0 01-1.635 5.231z"/><path d="M496 440a56 56 0 00-56-56h-7.675a8.215 8.215 0 01-8.325-7.8 7.979 7.979 0 018-8.2h23.454c13.427 0 24.769-10.987 24.543-24.411A24.029 24.029 0 00456 320h-24a56.562 56.562 0 00-8.337.623 53.106 53.106 0 00-5.291-29.766L416 286.111V256a7.957 7.957 0 00-7.846-8 41.245 41.245 0 00-37.654 24h-21a41.247 41.247 0 00-37.658-24 7.957 7.957 0 00-7.842 8v18.734A47.867 47.867 0 00288 272h-40v-34.715A79.4 79.4 0 00286.4 184h.95c17.6 0 32.386-13.931 32.643-31.525a32.009 32.009 0 00-16-28.17v-15.047a47.995 47.995 0 10-46.09-82.622A87.463 87.463 0 00216 16h-16a88 88 0 00-88 88v20.305a32.009 32.009 0 00-16 28.17C96.26 170.069 111.05 184 128.646 184h.95A79.4 79.4 0 00168 237.286V272h-44.2a47.946 47.946 0 00-47.7 42.7L73.73 336H38.246a22.244 22.244 0 00-21.581 27.642l28.42 120.044A16 16 0 0060.654 496H440a56.172 56.172 0 009.32-.779c.029 0 .057-.012.086-.016l.068-.014A55.784 55.784 0 00496 440zm-27.714-28.28A40.019 40.019 0 01456 476.683v-18.8c.333-.3.665-.6.987-.918a24.009 24.009 0 00-9.527-39.775A70.487 70.487 0 00434.594 400H440a39.709 39.709 0 0128.286 11.72zm-49.849-73.353A39.782 39.782 0 01432 336h24a8 8 0 010 16h-24a23.976 23.976 0 00-23.09 17.437l-4.5-13.49a53.627 53.627 0 0014.027-17.58zM320 288v-22.708a25.269 25.269 0 0116 16.008l.41 1.231A8 8 0 00344 288h32a8 8 0 007.59-5.472l.41-1.228a25.273 25.273 0 0116-16.007V288a7.987 7.987 0 00.845 3.577l3.217 6.436A37.3 37.3 0 01370.7 352h-21.39a37.305 37.305 0 01-33.367-53.988l3.217-6.435A7.987 7.987 0 00320 288zm-52.4 192a22.18 22.18 0 00.353-11.072L266.862 464h50.911a35.669 35.669 0 00-5.609 16zm33.945-188.973A53.248 53.248 0 00320 359.191V448h-29.946A69.953 69.953 0 00288 365.176V288a31.756 31.756 0 0113.549 3.027zM272 288v80a8 8 0 001.883 5.156 54.021 54.021 0 01-.009 69.7A8.007 8.007 0 00272 448h-8.694l-20.365-91.64a25.852 25.852 0 00-13.12-17.313 50.747 50.747 0 008.543-5.217 49.965 49.965 0 0018.118-26.4l5.552-19.43zm-88-16v-27.662a80.487 80.487 0 0048 0V272a16.011 16.011 0 0013.457 15.778l-4.36 15.257A34.429 34.429 0 01208 328a34.566 34.566 0 01-33.1-24.968l-4.359-15.254A16.011 16.011 0 00184 272zm104-104v-32a16 16 0 010 32zm0-136a32 32 0 0115.2 60.159 87.984 87.984 0 00-31.126-55.929A31.719 31.719 0 01288 32zm-160 72a72.081 72.081 0 0172-72h16a72.081 72.081 0 0172 72v16h-3.056l-29.789-59.578A8 8 0 00243 57.753c-.627.5-63.214 50.264-108.759 60.482q-3.232.728-6.244 1.157zm-16 48a16.019 16.019 0 0116-16v32a16.019 16.019 0 01-16-16zm32 16v-35.756c38.386-10.838 83.322-42.578 101.186-55.983L272 129.889V168a64 64 0 11-128 0zm9.966 120l5.552 19.427A50.451 50.451 0 00180.846 336H144v-48zM92 316.464A31.962 31.962 0 01123.8 288h4.2v48H89.829zM70.054 480a9.985 9.985 0 01-9.7-7.575L32.186 359.756a6.171 6.171 0 01-.186-1.51A6.253 6.253 0 0138.246 352h179.315a9.94 9.94 0 019.761 7.831L252.338 472.4a6.246 6.246 0 01-6.1 7.6zM400 479.982V416h-16v63.986l-23.7.006a19.152 19.152 0 015.356-10.335A8 8 0 00368 464v-48h-16v44.925A34.98 34.98 0 00344.157 480h-15.866a19.472 19.472 0 015.366-10.343A8 8 0 00336 464v-97.681A53.225 53.225 0 00349.305 368H370.7a52.99 52.99 0 0019.618-3.757l10.1 30.287a8 8 0 004.619 4.9 55.44 55.44 0 0125.4 20.449 56.339 56.339 0 014.334 7.644A55.183 55.183 0 01440 451.08v28.892z"/><path d="M328 304h16v16h-16zm48 0h16v16h-16z"/></svg>