<svg height="512" width="512" xmlns="http://www.w3.org/2000/svg"><path d="M120 120h16v16h-16z" fill="#92563a"/><path d="M328 320v176H144V360h-8l-16 136H64l20.05-180.42A40 40 0 01123.8 280H168a8 8 0 008-8v-56h64v56a8 8 0 008 8h40a40 40 0 0140 40z" fill="#fec9a3"/><path d="M240 216v32.51a72.1 72.1 0 01-64 0V216z" fill="#feb784"/><path d="M280 448v48H136l-.41-28.72-.28-19.28c-19.79-23.56-18.46-57.28.69-80v-88h24l7.21 25.23a42.421 42.421 0 0081.58 0L256 280h24v88a62.085 62.085 0 010 80z" fill="#d3669a"/><path d="M280 448v48H136l-.41-28.72c55.3-14.78 108.62-41.05 154.27-83.08A62.042 62.042 0 01280 448z" fill="#cc6395"/><circle cx="288" cy="64" fill="#804a32" r="40"/><path d="M128 128h8v48h-8a24 24 0 01-24-24 24 24 0 0124-24z" fill="#feb784"/><path d="M280 112v56a72 72 0 11-144 0v-56a63.951 63.951 0 0164-64h16a64 64 0 0164 64z" fill="#fec9a3"/><path d="M280 112v56a72.033 72.033 0 01-89.62 69.82 86.626 86.626 0 0029.89-65.55V133.7a86.862 86.862 0 00-49.76-78.52A63.692 63.692 0 01200 48h16a64 64 0 0164 64z" fill="#fec093"/><path d="M200 24a80 80 0 00-80 80v24c48 0 128-64 128-64l32 64 16 8v-32a80 80 0 00-80-80z" fill="#92563a"/><path d="M280 128h8a24 24 0 0124 24 24 24 0 01-24 24h-8v-48z" fill="#feb784"/><path d="M56 464h280v32H56z" fill="#cfcfcd"/><path d="M246.24 496H70.05a17.987 17.987 0 01-17.46-13.63L24.43 369.7a13.877 13.877 0 01-.43-3.45A14.237 14.237 0 0138.25 352h179.31a18 18 0 0117.57 14.1l1.21 5.43 23.81 107.13A14.255 14.255 0 01246.24 496z" fill="#e0e0de"/><ellipse cx="136" cy="424" fill="#f2f2f2" rx="15.31" ry="16.721" transform="rotate(-46.3 135.828 423.712)"/><path d="M246.24 496H70.05a18.005 18.005 0 01-14.25-7c66.91-19.35 130.49-55.96 180.54-117.47l23.81 107.13A14.255 14.255 0 01246.24 496z" fill="#dbdbd9"/><path d="M472 352a16 16 0 00-16-16h-24a48 48 0 00-48 48 48 48 0 0048 48h8a16 16 0 0116 16 16 16 0 01-16 16h-56v32h56a48 48 0 0048-48 48 48 0 00-48-48h-8a16 16 0 01-16-16 16 16 0 0116-16h24a16 16 0 0016-16z" fill="#404f66"/><path d="M448 496H320v-4.686A27.315 27.315 0 01328 472V352h64l16 48a63.632 63.632 0 0140 59.081z" fill="#485870"/><path d="M370.7 368h-21.39A45.305 45.305 0 01304 322.7a45.312 45.312 0 014.783-20.261L312 296v-32a33.3 33.3 0 0131.589 22.768L344 288h32l.411-1.232A33.3 33.3 0 01408 264v32l3.217 6.434A45.312 45.312 0 01416 322.7a45.305 45.305 0 01-45.3 45.3z" fill="#4d5e78"/><path d="M328 312h16v16h-16zm48 0h16v16h-16z" fill="#348fd9"/><path d="M360 496h-16v-4.687a35.045 35.045 0 018-22.388V424h16v48a8 8 0 01-2.343 5.657A19.185 19.185 0 00360 491.313zm24-72h16v72h-16z" fill="#3b495e"/><path d="M172 128a12 12 0 1012 12 12.013 12.013 0 00-12-12zm72 0a12 12 0 1012 12 12.013 12.013 0 00-12-12z" fill="#92563a"/><path d="M208 200a24.028 24.028 0 01-24-24h16a8 8 0 0016 0h16a24.028 24.028 0 01-24 24z" fill="#f7ad7c"/></svg>