<svg xmlns="http://www.w3.org/2000/svg" viewBox="0 0 512 512"><path d="M354.595 390.842c8.558-1.122 28.358.314 35.841 2.171.607.15 1.214.223 1.813.223a7.501 7.501 0 001.8-14.781c-9.113-2.262-30.829-3.873-41.406-2.485a7.5 7.5 0 101.952 14.872zM220.693 130.067c3.958 3.542 6.408 8.321 6.899 13.333-8.641.509-15.52 7.679-15.52 16.446v13.329c0 7.046 4.449 13.057 10.678 15.416 3.773 14.931 17.378 25.927 33.248 25.927 15.871 0 29.476-10.996 33.249-25.927 6.229-2.359 10.678-8.37 10.678-15.416v-13.329c0-8.768-6.882-15.939-15.525-16.446.468-5.038 2.815-9.725 6.609-13.07a53.371 53.371 0 005.958-6.174 7.5 7.5 0 00-1.043-10.555 7.5 7.5 0 00-10.555 1.043 38.46 38.46 0 01-4.28 4.434c-7.01 6.18-11.22 14.941-11.728 24.272h-26.729c-.522-9.252-4.806-18.078-11.938-24.461-8.487-7.595-13.086-18.485-12.619-29.88.811-19.786 16.958-35.746 36.761-36.334 20.736-.635 38.251 15.7 39.086 36.372a7.494 7.494 0 007.796 7.191 7.5 7.5 0 007.191-7.797c-1.166-28.849-25.613-51.6-54.519-50.761-27.636.822-50.17 23.098-51.303 50.713-.648 15.891 5.768 31.081 17.606 41.674zM256 199.518c-7.143 0-13.457-3.966-16.79-9.848h33.581c-3.334 5.881-9.648 9.848-16.791 9.848zm27.432-41.167c.824 0 1.495.671 1.495 1.495v13.329c0 .824-.671 1.495-1.495 1.495h-54.863a1.497 1.497 0 01-1.495-1.495v-13.329c0-.824.671-1.495 1.495-1.495h54.863zM256 29.351a7.5 7.5 0 007.5-7.5V7.5A7.5 7.5 0 00256 0a7.5 7.5 0 00-7.5 7.5v14.351a7.5 7.5 0 007.5 7.5zm61.126 73.153a7.5 7.5 0 005.93 8.795l14.335 2.789a7.5 7.5 0 002.863-14.724l-14.335-2.789a7.5 7.5 0 00-8.793 5.929zM179.939 53.328l12.493 7.564a7.498 7.498 0 0010.3-2.531A7.5 7.5 0 00200.2 48.06l-12.493-7.563a7.5 7.5 0 10-7.768 12.831zm135.752 8.649c1.323 0 2.663-.35 3.877-1.085l12.493-7.564a7.5 7.5 0 00-7.769-12.832L311.8 48.06a7.5 7.5 0 003.891 13.917z"/><path d="M450.228 231.003c-3.349-11.068-12.97-19.093-24.512-20.442-34.87-4.083-69.191 6.732-94.948 29.721-23.325-8.26-48.648-12.607-74.767-12.607-26.12 0-51.442 4.347-74.768 12.607-25.758-22.987-60.082-33.792-94.948-29.721-11.541 1.35-21.163 9.374-24.512 20.442-10.518 34.763-5.009 71.408 15.052 101.261-7.201 16.784-10.958 34.655-10.958 53.021 0 48.485 26.358 85.393 76.226 106.732a7.5 7.5 0 005.902-13.791c-21.336-9.13-37.868-21.344-49.14-36.304-11.935-15.841-17.987-34.897-17.987-56.638 0-78.636 78.565-142.61 175.134-142.61s175.134 63.975 175.134 142.61c0 36.457-16.753 64.797-49.795 84.232C350.773 487.496 307.431 497 256 497c-27.464 0-52.749-2.719-75.152-8.082a7.5 7.5 0 00-3.492 14.588C200.901 509.143 227.361 512 256 512c54.103 0 100.075-10.22 132.944-29.554 37.414-22.008 57.189-55.605 57.189-97.161 0-18.366-3.757-36.237-10.958-53.021 20.061-29.853 25.57-66.499 15.053-101.261zm-328.132 42.345c-15.543 12.775-28.083 27.383-37.35 43.239-15.081-26.767-14.383-52.9-11.393-69.566 15.165 3.345 34.219 10.165 51.663 23.984-.98.773-1.956 1.55-2.92 2.343zm15.503-11.43c-20.179-17.091-42.549-25.377-60.271-29.377 2.18-3.869 6.127-6.548 10.698-7.083 13.772-1.611 47.063-2.354 77.403 21.158-9.745 4.384-19.054 9.496-27.83 15.302zm208.972-15.301c30.339-23.509 63.629-22.768 77.402-21.158 4.571.535 8.518 3.213 10.698 7.083-17.72 3.999-40.09 12.285-60.271 29.376-8.775-5.806-18.084-10.918-27.829-15.301zm80.682 69.969c-9.267-15.855-21.806-30.463-37.35-43.239-.964-.792-1.94-1.57-2.921-2.343 17.446-13.82 36.499-20.64 51.663-23.984 2.991 16.667 3.689 42.8-11.392 69.566z"/><path d="M290.089 382.954c0-22.159-15.292-40.188-34.089-40.188s-34.089 18.028-34.089 40.188c0 22.16 15.292 40.186 34.089 40.186s34.089-18.027 34.089-40.186zm-53.178 0c0-13.889 8.564-25.188 19.089-25.188 10.526 0 19.089 11.299 19.089 25.188 0 13.888-8.563 25.186-19.089 25.186-10.526.001-19.089-11.298-19.089-25.186zm-51.259-12.753a7.5 7.5 0 007.5-7.5v-11.593a7.5 7.5 0 00-7.5-7.5 7.5 7.5 0 00-7.5 7.5v11.593a7.5 7.5 0 007.5 7.5zm148.196-7.5v-11.593a7.5 7.5 0 00-7.5-7.5 7.5 7.5 0 00-7.5 7.5v11.593a7.5 7.5 0 007.5 7.5 7.5 7.5 0 007.5-7.5zm-161.501 43.258a7.5 7.5 0 00-9.164-5.34c-10.313 2.718-29.777 12.425-37.337 17.965a7.5 7.5 0 108.866 12.099c6.206-4.547 23.956-13.362 32.295-15.561a7.498 7.498 0 005.34-9.163zm.821-291.732c.475 0 .957-.045 1.44-.139l14.335-2.789a7.5 7.5 0 00-2.864-14.725l-14.336 2.789a7.5 7.5 0 001.425 14.864zm166.485 291.732a7.5 7.5 0 005.341 9.164c8.34 2.198 26.09 11.014 32.295 15.561a7.466 7.466 0 004.427 1.451 7.5 7.5 0 004.439-13.55c-7.56-5.54-27.024-15.247-37.337-17.965a7.501 7.501 0 00-9.165 5.339zm-182.248-15.117c4.102.532 7.872-2.355 8.412-6.461a7.5 7.5 0 00-6.461-8.412c-10.577-1.384-32.293.224-41.406 2.485a7.501 7.501 0 003.613 14.558c7.484-1.856 27.285-3.292 35.842-2.17z"/></svg>