<svg xmlns="http://www.w3.org/2000/svg" viewBox="0 0 512.001 512.001"><path d="M82.496 419.062c-1.647 0-3.322-.274-4.965-.85-7.8-2.743-11.9-11.287-9.159-19.088 4.74-13.485 15.14-23.871 29.282-29.245 20.505-7.794 46.624-4.745 69.869 8.153 10.066 5.587 17.849 5.572 26.859-.043 9.951-6.202 19.876-18.41 29.474-30.215l2.937-3.607c5.234-6.403 14.665-7.351 21.065-2.123 6.403 5.231 7.353 14.663 2.123 21.065l-2.892 3.552c-11.148 13.713-22.676 27.893-36.87 36.738-18.342 11.429-37.594 11.704-57.22.815-15.162-8.413-32.71-10.906-44.708-6.346-5.926 2.251-9.852 6.015-11.67 11.186-2.166 6.156-7.949 10.008-14.125 10.008z" fill="#eda751"/><path d="M247.858 342.044c-6.4-5.228-15.831-4.28-21.065 2.123l-2.937 3.607c-9.597 11.805-19.523 24.013-29.474 30.215-9.01 5.615-16.792 5.63-26.859.043-11.456-6.356-23.609-10.316-35.445-11.769l53.779 45.71c8.262-.756 16.397-3.613 24.361-8.575 14.194-8.845 25.722-23.025 36.87-36.738l2.892-3.552c5.231-6.402 4.281-15.833-2.122-21.064z" opacity=".2" fill="#a35f00"/><path d="M74.598 387.207a46.842 46.842 0 00-6.225 11.916c-2.741 7.801 1.359 16.346 9.159 19.088 1.643.576 3.318.85 4.965.85 6.176 0 11.959-3.852 14.123-10.009a16.894 16.894 0 013.978-6.347c-6.198-9.525-17.638-13.964-26-15.498z" fill="#fcd79d"/><path d="M233.108 496.15a23.92 23.92 0 01-7.983-1.376c-12.472-4.409-19.009-18.094-14.6-30.566 8.135-23.01 15.583-48.269 9.143-61.147-5.916-11.832-1.12-26.22 10.712-32.136 11.835-5.916 26.219-1.119 32.136 10.712 13.618 27.237 7.12 59.089-6.826 98.537-3.475 9.831-12.717 15.976-22.582 15.976z" fill="#eda751"/><path d="M230.38 370.925c-11.832 5.916-16.628 20.303-10.712 32.136 4.159 8.317 2.522 21.8-1.348 36.504l39.734 33.772c12.27-36.316 17.284-66.055 4.462-91.7-5.917-11.832-20.301-16.628-32.136-10.712z" opacity=".2" fill="#a35f00"/><path d="M364.239 495.751c-2.649 0-5.344-.443-7.983-1.377-12.472-4.409-19.009-18.094-14.599-30.566 4.416-12.493 2.42-24.835-.033-32.991-3.141-10.444-8.056-17.514-9.934-19.289-10.464-7.824-12.738-22.63-5.041-33.242 7.766-10.708 22.746-13.093 33.453-5.327 18.419 13.36 43.102 60.479 26.721 106.816-3.477 9.832-12.718 15.976-22.584 15.976zm-32.274-84.019l.01.007a.036.036 0 00-.01-.007z" fill="#eda751"/><ellipse cx="291.791" cy="324.96" rx="110.48" ry="102.66" fill="#fcd690"/><path d="M275.658 426.525c-50.485-33.145-34.839-101.078-26.268-130.787v-65.597c-39.97 15.451-68.076 52.083-68.076 94.819 0 51.603 40.978 94.308 94.344 101.565z" opacity=".15" fill="#c17a00"/><path d="M224.559 146.952c21.618-18.139 36.051-48.591 5.559-93.605C199.385 7.976 153.629-3.397 117.906.812a22.34 22.34 0 00-18.748 15.731c-10.348 34.449-7.093 81.485 32.251 119.63 39.037 37.845 71.532 28.919 93.15 10.779z" fill="#eda751"/><path d="M97.721 21.814c-8.483 33.871-3.687 78.122 33.689 114.358 33.835 32.803 62.75 30.459 83.933 17.443-14.568-98.9-78.21-125.126-117.622-131.801z" fill="#ff91ab"/><path d="M359.023 146.952c-21.618-18.139-36.051-48.591-5.559-93.605C384.197 7.977 429.954-3.396 465.676.812a22.338 22.338 0 0118.747 15.731c10.348 34.449 7.093 81.485-32.251 119.63-39.036 37.845-71.531 28.919-93.149 10.779z" fill="#eda751"/><path d="M485.861 21.814c8.483 33.871 3.687 78.122-33.689 114.358-33.835 32.803-62.75 30.459-83.933 17.443 14.568-98.9 78.21-125.126 117.622-131.801z" fill="#ff91ab"/><path d="M479.876 174.33c0 85.998-84.209 123.664-188.085 123.664-103.877 0-188.085-37.666-188.085-123.664S187.914 18.618 291.791 18.618 479.876 88.333 479.876 174.33z" fill="#ffdc9c"/><path d="M191.363 42.659c-52.675 27.595-87.657 76.248-87.657 131.672 0 73.926 62.228 112.137 145.684 121.408-119.799-71.56-104.175-167.814-58.027-253.08z" opacity=".15" fill="#c17a00"/><g fill="#ff91ab"><ellipse cx="221.241" cy="193.97" rx="34.05" ry="27.12"/><ellipse cx="405.831" cy="193.97" rx="34.05" ry="27.12"/></g><path d="M241.084 174.418a7.499 7.499 0 01-7.5-7.5v-12.025c0-4.143 3.357-7.5 7.5-7.5s7.5 3.357 7.5 7.5v12.025a7.5 7.5 0 01-7.5 7.5zm144.896 0a7.499 7.499 0 01-7.5-7.5v-12.025c0-4.143 3.357-7.5 7.5-7.5s7.5 3.357 7.5 7.5v12.025a7.5 7.5 0 01-7.5 7.5zm-72.448 9.235a32.829 32.829 0 01-24.755-11.275 7.498 7.498 0 01.727-10.581 7.5 7.5 0 0110.581.727 17.837 17.837 0 0013.446 6.129c5.15 0 10.051-2.234 13.445-6.129a7.497 7.497 0 0110.581-.727 7.5 7.5 0 01.728 10.581 32.822 32.822 0 01-24.753 11.275zm-140.315 14.658a7.5 7.5 0 01-1.814-14.779c9.371-2.343 31.703-4.014 42.578-2.574a7.5 7.5 0 01-1.965 14.871c-8.83-1.169-29.255.324-36.975 2.256a7.48 7.48 0 01-1.824.226zm10.847 40.352a7.5 7.5 0 01-4.46-13.535c7.769-5.735 27.778-15.787 38.385-18.604a7.5 7.5 0 013.85 14.498c-8.609 2.286-26.925 11.448-33.326 16.174a7.474 7.474 0 01-4.449 1.467zm269.783-40.352a7.5 7.5 0 01-1.825-.226c-7.72-1.93-28.143-3.421-36.975-2.256a7.5 7.5 0 01-1.965-14.871c10.881-1.438 33.209.231 42.578 2.574a7.501 7.501 0 01-1.813 14.779zM443 238.663a7.466 7.466 0 01-4.448-1.467c-6.401-4.726-24.717-13.888-33.326-16.174a7.5 7.5 0 013.85-14.498c10.607 2.816 30.616 12.868 38.385 18.604A7.5 7.5 0 01443 238.663zm53.962 270.158h-81.295c-4.143 0-7.5-3.357-7.5-7.5s3.357-7.5 7.5-7.5h81.295c4.143 0 7.5 3.357 7.5 7.5s-3.357 7.5-7.5 7.5zM167.953 202.513L82.874 303.898l-39.512-33.157 85.079-101.386z" fill="#495059"/><path d="M128.44 169.35L43.363 270.74l-25.289-21.22c-12.476-10.468-14.103-29.068-3.635-41.544l47.167-56.212c10.468-12.476 29.068-14.103 41.544-3.635l25.29 21.221z" fill="#ff91ab"/><path d="M82.878 303.898L295.47 484.591a68.571 68.571 0 0034.608 15.386l85.382 11.906c8.589 1.198 15.471-7.004 12.8-15.254l-26.551-82.017a68.57 68.57 0 00-21.162-31.41L167.955 202.508l-85.077 101.39z" fill="#f5d141"/><path opacity=".1" d="M349.392 450.945L120.586 258.94l9.642-11.49 228.806 192.005z"/><path d="M312.429 495.034a68.556 68.556 0 0017.65 4.944l85.382 11.906c8.589 1.198 15.471-7.004 12.8-15.254l-26.551-82.017a68.584 68.584 0 00-7.933-16.523l-81.348 96.944z" fill="#ffdc9c"/><path d="M376.074 506.391l39.386 5.492c8.589 1.198 15.471-7.004 12.8-15.254l-12.248-37.834-39.938 47.596z" fill="#495059"/><path d="M415.46 511.883c3.9.544 7.436-.862 9.897-3.318-225.258-98.801-365.779-274.126-389.678-325.9L14.44 207.977c-10.469 12.476-8.841 31.076 3.635 41.544l25.289 21.22 39.515 33.157 212.592 180.693a68.571 68.571 0 0034.608 15.386l85.381 11.906z" opacity=".1"/><path d="M124.534 354.674a23.86 23.86 0 01-11.227-2.809c-11.679-6.213-16.112-20.716-9.9-32.396 1.436-2.701 9.128-16.81 19.523-29.425 8.413-10.209 23.509-11.665 33.717-3.253 10.209 8.413 11.665 23.508 3.253 33.717-6.203 7.528-11.843 17.029-14.197 21.456-4.307 8.096-12.598 12.71-21.169 12.71zm200.304 7.032h-.147c-13.229-.036-23.923-10.789-23.887-24.018.036-13.206 10.754-23.887 23.951-23.887h.108c9.569 0 36.012-9.212 48.215-19.758 10.009-8.649 25.135-7.547 33.785 2.462 8.649 10.009 7.547 25.135-2.462 33.785-19.399 16.763-56.528 31.416-79.563 31.416z" fill="#eda751"/></svg>