<svg xmlns="http://www.w3.org/2000/svg" viewBox="0 0 512 512"><path d="M339.768 475.04H49.839c-9.317 0-16.869-7.553-16.869-16.869v-47.672c0-9.317 7.553-16.869 16.869-16.869h289.929c9.317 0 16.869 7.553 16.869 16.869v47.672c0 9.316-7.553 16.869-16.869 16.869z" fill="#bd4568"/><path opacity=".1" d="M78.54 393.63h34.867v81.41H78.54z"/><path d="M13.361 414.252a13.32 13.32 0 01-9.821-4.301c-5.002-5.423-4.662-13.874.761-18.876 28.207-26.022 54.153-29.808 95.739-13.965 22.567 8.593 36.91-6.345 57.846-31.974 4.668-5.714 13.083-6.559 18.797-1.894 5.714 4.667 6.561 13.083 1.894 18.797-15.744 19.271-36.227 44.34-66.054 44.343-6.825 0-14.135-1.312-21.994-4.305-35.577-13.554-49.766-8.29-68.113 8.635a13.312 13.312 0 01-9.055 3.54z" fill="#eda751"/><path d="M12.189 384.341a128.582 128.582 0 00-7.888 6.734c-5.423 5.002-5.763 13.453-.761 18.876a13.32 13.32 0 009.821 4.301c3.238 0 6.487-1.171 9.055-3.54 2.543-2.346 5.006-4.459 7.457-6.338-3.206-9.015-10.235-16.932-17.684-20.033z" fill="#fcd79d"/><path d="M176.682 343.242c-5.714-4.665-14.129-3.82-18.797 1.894-17.612 21.56-30.559 35.55-47.661 34.335 5.055 8.878 11.345 17.043 18.659 24.286 21.244-6.913 37.008-26.192 49.692-41.718 4.668-5.714 3.821-14.13-1.893-18.797z" opacity=".2" fill="#c18f00"/><ellipse cx="210.82" cy="326.93" rx="98.58" ry="91.6" fill="#fcd690"/><path d="M196.421 417.558c-45.049-29.576-31.087-90.194-23.44-116.704V242.32c-35.666 13.788-60.745 46.475-60.745 84.609-.001 46.047 36.564 84.153 84.185 90.629z" opacity=".15" fill="#c17a00"/><path d="M150.824 168.088c19.29-16.186 32.169-43.358 4.961-83.526-27.424-40.485-68.254-50.633-100.13-46.878a19.934 19.934 0 00-16.729 14.037c-9.233 30.739-6.329 72.711 28.779 106.748 34.833 33.771 63.829 25.806 83.119 9.619z" fill="#eda751"/><path d="M37.643 56.425c-7.57 30.224-3.29 69.711 30.061 102.044 30.192 29.271 55.993 27.18 74.896 15.564-13-88.25-69.788-111.652-104.957-117.608z" fill="#ff91ab"/><path d="M270.809 168.088c-19.29-16.186-32.169-43.358-4.961-83.526 27.424-40.485 68.253-50.633 100.129-46.878a19.934 19.934 0 0116.729 14.037c9.233 30.739 6.329 72.711-28.779 106.748-34.832 33.771-63.828 25.806-83.118 9.619z" fill="#eda751"/><path d="M383.989 56.425c7.57 30.224 3.29 69.711-30.062 102.044-30.192 29.271-55.993 27.18-74.895 15.564 13-88.25 69.789-111.652 104.957-117.608z" fill="#ff91ab"/><path d="M378.649 192.519c0 76.738-75.141 110.348-167.833 110.348S42.984 269.257 42.984 192.519 118.125 53.573 210.817 53.573s167.832 62.208 167.832 138.946z" fill="#ffdc9c"/><path d="M121.202 75.025c-47.003 24.623-78.218 68.038-78.218 117.493 0 65.966 55.527 100.062 129.997 108.335C66.082 237 80.023 151.11 121.202 75.025z" opacity=".15" fill="#c17a00"/><g fill="#ff91ab"><ellipse cx="144.12" cy="195.53" rx="30.388" ry="24.2"/><ellipse cx="308.83" cy="195.53" rx="30.388" ry="24.2"/></g><path d="M161.832 178.89a7.5 7.5 0 01-7.5-7.5v-10.731a7.5 7.5 0 017.5-7.5c4.143 0 7.5 3.357 7.5 7.5v10.731a7.5 7.5 0 01-7.5 7.5zm129.293 0a7.499 7.499 0 01-7.5-7.5v-10.731c0-4.143 3.357-7.5 7.5-7.5s7.5 3.357 7.5 7.5v10.731a7.5 7.5 0 01-7.5 7.5zm-64.646 8.24a30.105 30.105 0 01-22.697-10.337 7.498 7.498 0 01.725-10.581 7.497 7.497 0 0110.581.726 15.112 15.112 0 0011.391 5.192c4.362 0 8.514-1.893 11.391-5.192a7.497 7.497 0 0110.581-.726 7.5 7.5 0 01.726 10.581 30.11 30.11 0 01-22.698 10.337zm-125.207 13.08a7.501 7.501 0 01-1.814-14.779c8.427-2.107 28.509-3.607 38.295-2.313a7.5 7.5 0 016.453 8.418c-.543 4.108-4.325 6.993-8.418 6.453-7.65-1.013-26.017.326-32.691 1.995a7.506 7.506 0 01-1.825.226zm9.68 36.006a7.499 7.499 0 01-4.461-13.533c6.986-5.158 24.983-14.199 34.524-16.732a7.5 7.5 0 013.85 14.498c-7.46 1.98-23.93 10.215-29.464 14.301a7.468 7.468 0 01-4.449 1.466zm240.734-36.006a7.5 7.5 0 01-1.825-.226c-6.675-1.669-25.038-3.009-32.691-1.995-4.096.539-7.875-2.345-8.418-6.453a7.5 7.5 0 016.453-8.418c9.785-1.292 29.869.207 38.295 2.313a7.5 7.5 0 01-1.814 14.779zm-9.681 36.006a7.465 7.465 0 01-4.449-1.467c-5.534-4.086-22.004-12.32-29.464-14.301a7.5 7.5 0 013.85-14.498c9.541 2.533 27.538 11.574 34.524 16.732a7.499 7.499 0 011.578 10.488 7.488 7.488 0 01-6.039 3.046z" fill="#495059"/><path d="M348.836 262.06c-3.476-29.073-119.819-48.635-157.892 0v165.465h157.892V262.06z" fill="#dee2e5"/><path d="M348.836 262.06c-3.476-29.073-119.819-48.635-157.892 0v165.465h157.892V262.06zm.001 0c3.01-29.074 103.761-48.635 136.731 0v165.465H348.837V262.06z" fill="#dee2e5"/><g fill="#78cfc0"><path d="M316.196 475.04H185.674c-12.152 0-22.003-9.851-22.003-22.003V284.063c0-12.152 9.851-22.003 22.003-22.003h130.521v212.98h.001zm173.801 0h-108.52V262.06h108.52c12.152 0 22.003 9.851 22.003 22.003v168.975c0 12.151-9.851 22.002-22.003 22.002z"/><path d="M316.2 262.06h65.28v212.98H316.2z"/></g><path opacity=".1" d="M316.2 262.06h65.28v212.98H316.2z"/><path d="M213.801 443.932h52.266a5.779 5.779 0 005.779-5.779v-18.11a5.779 5.779 0 00-5.779-5.779h-52.266a5.779 5.779 0 00-5.779 5.779v18.11a5.779 5.779 0 005.779 5.779z" fill="#fff"/><path d="M176.193 379.562c-28.1 3.27-60.745-8.902-77.129-41.917-5.247-10.574-.929-23.399 9.645-28.647 10.572-5.249 23.399-.93 28.647 9.645 9.68 19.509 29.91 20.762 40.386 16.969 11.108-4.015 23.355 1.723 27.373 12.821 4.018 11.1-1.722 23.355-12.821 27.373-5.075 1.837-10.501 3.104-16.101 3.756z" fill="#eda751"/><path d="M348.836 398.034a7.5 7.5 0 01-7.5-7.5v-66.23a7.5 7.5 0 017.5-7.5c4.143 0 7.5 3.357 7.5 7.5v66.23c0 4.143-3.357 7.5-7.5 7.5zm0 48.849a7.5 7.5 0 01-7.5-7.5v-15.439a7.5 7.5 0 017.5-7.5c4.143 0 7.5 3.357 7.5 7.5v15.439a7.5 7.5 0 01-7.5 7.5z" fill="#f5d141"/><path d="M479.251 446.883h-65.024c-4.143 0-7.5-3.357-7.5-7.5s3.357-7.5 7.5-7.5h65.024c4.143 0 7.5 3.357 7.5 7.5s-3.357 7.5-7.5 7.5zm-13.027-25.131h-38.97c-4.143 0-7.5-3.357-7.5-7.5s3.357-7.5 7.5-7.5h38.97c4.143 0 7.5 3.357 7.5 7.5a7.5 7.5 0 01-7.5 7.5z" opacity=".1"/></svg>