<svg xmlns="http://www.w3.org/2000/svg" viewBox="0 0 512 512"><path d="M189.731 364.195c21.308-17.751 35.535-47.549 5.48-91.599-30.292-44.398-75.393-55.527-110.604-51.409-8.681 1.015-15.964 7.083-18.479 15.394-10.199 33.71-6.992 79.739 31.789 117.066 38.477 37.034 70.506 28.299 91.814 10.548z" fill="#eda751"/><path d="M64.711 241.739c-8.362 33.145-3.634 76.448 33.206 111.908 33.35 32.1 61.851 29.806 82.73 17.069-14.359-96.782-77.089-122.446-115.936-128.977z" fill="#ff91ab"/><path d="M322.269 364.195c-21.308-17.751-35.535-47.549-5.48-91.599 30.292-44.398 75.393-55.527 110.604-51.409 8.681 1.015 15.964 7.083 18.479 15.394 10.199 33.71 6.991 79.739-31.789 117.066-38.477 37.034-70.506 28.299-91.814 10.548z" fill="#eda751"/><path d="M447.289 241.739c8.362 33.145 3.634 76.448-33.206 111.908-33.35 32.1-61.851 29.806-82.73 17.069 14.359-96.782 77.089-122.446 115.936-128.977z" fill="#ff91ab"/><path d="M441.39 390.987C441.39 475.141 358.388 512 256 512S70.61 475.141 70.61 390.987 153.612 238.611 256 238.611s185.39 68.221 185.39 152.376z" fill="#ffdc9c"/><path d="M157.011 262.137c-51.92 27.003-86.401 74.614-86.401 128.85 0 72.342 61.336 109.733 143.596 118.806-118.082-70.026-102.682-164.217-57.195-247.656z" opacity=".15" fill="#c17a00"/><g fill="#ff91ab"><ellipse cx="165.03" cy="394.54" rx="33.567" ry="26.538"/><ellipse cx="346.97" cy="394.54" rx="33.567" ry="26.538"/></g><path d="M184.59 375.561a7.5 7.5 0 01-7.5-7.5v-11.768c0-4.143 3.358-7.5 7.5-7.5s7.5 3.357 7.5 7.5v11.768a7.5 7.5 0 01-7.5 7.5zm142.82 0a7.5 7.5 0 01-7.5-7.5v-11.768c0-4.143 3.358-7.5 7.5-7.5s7.5 3.357 7.5 7.5v11.768a7.5 7.5 0 01-7.5 7.5zm-209.714 23.382a7.502 7.502 0 01-1.8-14.781c9.241-2.293 31.264-3.928 41.988-2.521a7.5 7.5 0 016.46 8.412c-.539 4.107-4.308 6.988-8.412 6.461-8.697-1.145-28.819.318-36.424 2.206a7.489 7.489 0 01-1.812.223zm10.691 39.487a7.499 7.499 0 01-4.439-13.55c7.667-5.618 27.405-15.462 37.863-18.218a7.5 7.5 0 113.823 14.504c-8.476 2.234-26.515 11.192-32.82 15.813a7.47 7.47 0 01-4.427 1.451zm265.917-39.487a7.503 7.503 0 01-1.813-.223c-7.605-1.888-27.727-3.35-36.424-2.206a7.5 7.5 0 01-1.952-14.873c10.725-1.404 32.748.228 41.988 2.521a7.501 7.501 0 01-1.799 14.781zm-10.691 39.487a7.466 7.466 0 01-4.427-1.451c-6.306-4.621-24.344-13.579-32.82-15.813a7.5 7.5 0 013.823-14.504c10.458 2.756 30.197 12.6 37.863 18.218a7.5 7.5 0 01-4.439 13.55z" fill="#495059"/><ellipse cx="256" cy="388.62" rx="26.991" ry="33.18" fill="#ff91ab"/><path d="M302.142 91.868c0-25.95-21.422-46.897-47.548-46.121-24.008.714-43.712 20.183-44.696 44.181-.592 14.438 5.457 27.473 15.34 36.316 6.034 5.4 9.638 12.999 9.638 21.097v5.673h42.249v-5.674c0-7.977 3.396-15.591 9.38-20.867 9.587-8.452 15.637-20.819 15.637-34.605z" fill="#f5d141"/><path d="M302.142 91.868c0-25.95-21.422-46.897-47.548-46.121-24.008.714-43.712 20.183-44.696 44.181-.592 14.438 5.457 27.473 15.34 36.316 6.034 5.4 9.638 12.999 9.638 21.097v5.673h42.249v-5.674c0-7.977 3.396-15.591 9.38-20.867 9.587-8.452 15.637-20.819 15.637-34.605z" fill="#f5d141"/><path d="M250.363 153.014c1.136-14.128-.451-29.956-11.351-41.254-16.904-17.522-12.524-47.131-.055-62.734-16.408 6.598-28.301 22.398-29.06 40.901-.592 14.438 5.457 27.473 15.34 36.316 6.034 5.4 9.638 13 9.638 21.097v5.673l15.488.001z" opacity=".2" fill="#c18f00"/><circle cx="256" cy="182.82" r="27.21" fill="#495059"/><path d="M283.845 184.806h-55.691a9.13 9.13 0 01-9.131-9.131v-13.53a9.13 9.13 0 019.131-9.131h55.691a9.13 9.13 0 019.131 9.131v13.53a9.13 9.13 0 01-9.131 9.131z" fill="#dee2e5"/><path d="M244.61 153.014h-16.456a9.13 9.13 0 00-9.131 9.131v13.53a9.13 9.13 0 009.131 9.131h17.055c-5.603-8.243-5.107-24.977-.599-31.792z" opacity=".1"/><path d="M195.408 62.686a7.465 7.465 0 01-3.877-1.085l-12.681-7.678a7.5 7.5 0 017.769-12.832l12.681 7.678a7.5 7.5 0 01-3.892 13.917zm121.184 0a7.5 7.5 0 01-3.892-13.917l12.681-7.678a7.5 7.5 0 017.769 12.832l-12.681 7.678a7.465 7.465 0 01-3.877 1.085zm23.49 53.038c-.475 0-.957-.045-1.44-.139l-14.552-2.83a7.502 7.502 0 01-5.931-8.794c.791-4.065 4.731-6.717 8.794-5.931l14.552 2.83a7.502 7.502 0 01-1.423 14.864zm-168.164 0a7.502 7.502 0 01-1.423-14.863l14.552-2.83a7.5 7.5 0 112.863 14.725l-14.552 2.83a7.622 7.622 0 01-1.44.138zM256 29.567a7.5 7.5 0 01-7.5-7.5V7.5c0-4.143 3.358-7.5 7.5-7.5s7.5 3.357 7.5 7.5v14.567a7.5 7.5 0 01-7.5 7.5z" fill="#f5d141"/></svg>