<?xml version="1.0" standalone="no"?>
<!DOCTYPE svg PUBLIC "-//W3C//DTD SVG 1.1//EN" "http://www.w3.org/Graphics/SVG/1.1/DTD/svg11.dtd" >
<svg xmlns="http://www.w3.org/2000/svg" xmlns:xlink="http://www.w3.org/1999/xlink" version="1.1">
<metadata></metadata>
<defs>
<font id="marionettregular" horiz-adv-x="716" >
<font-face units-per-em="2048" ascent="1638" descent="-410" />
<missing-glyph horiz-adv-x="552" />
<glyph horiz-adv-x="0" />
<glyph horiz-adv-x="0" />
<glyph unicode="&#xd;" horiz-adv-x="0" />
<glyph unicode=" "  horiz-adv-x="552" />
<glyph unicode="&#x09;" horiz-adv-x="552" />
<glyph unicode="&#xa0;" horiz-adv-x="552" />
<glyph unicode="!" horiz-adv-x="506" d="M68 354q8 48 36 194q52 -6 198 -20q2 -48 10 -192q-62 4 -244 18zM104 1116q74 -16 290 -66q-18 -108 -80 -434q-52 0 -198 2q-2 126 -12 498z" />
<glyph unicode="&#x22;" horiz-adv-x="772" d="M76 760q20 80 80 316q50 -12 192 -52q-38 -70 -156 -282q-28 4 -116 18zM370 774q24 76 102 310q48 -16 188 -66q-44 -68 -176 -268q-28 6 -114 24z" />
<glyph unicode="#" horiz-adv-x="886" d="M70 522q6 38 24 150q26 -2 108 -4q4 28 20 108q-26 2 -112 8q6 36 26 142q28 -2 114 -8q6 38 30 150q38 -8 160 -32q-10 -36 -32 -136h102q14 38 50 164q42 -14 166 -48q-14 -34 -54 -136h102q-14 -32 -46 -124h-108q-8 -24 -40 -96q26 0 106 -2q-10 -32 -46 -126 q-26 2 -108 4q-16 -44 -62 -182q-30 6 -126 26q12 38 42 150q-16 0 -70 4q-12 -44 -46 -174q-30 4 -126 20q8 38 28 146q-24 0 -102 -4zM336 660q26 0 104 -2q6 28 24 114q-26 0 -106 4q-4 -30 -22 -116z" />
<glyph unicode="$" horiz-adv-x="842" d="M4 490q36 48 136 190q70 -48 276 -188q18 22 70 88q-114 54 -450 220q40 64 164 258q30 2 112 10l-16 144q40 4 164 14q-2 -34 -2 -144q26 2 110 12q44 -28 178 -112q-28 -48 -112 -188q-58 38 -230 158q-20 -20 -76 -80q112 -54 448 -226q-34 -70 -140 -282 q-28 -2 -112 -10q4 -34 22 -138q-40 -4 -162 -12q-2 34 -8 138q-28 -2 -118 -10q-64 38 -254 158z" />
<glyph unicode="%" horiz-adv-x="962" d="M66 1048l192 96q34 -38 142 -154q-20 -48 -78 -190q-56 8 -220 26q-10 56 -36 222zM114 448q144 160 572 636q32 -32 128 -126q-154 -148 -612 -592q-22 22 -88 82zM170 1002q10 -28 46 -110q20 14 74 56q-6 20 -30 78q-22 -8 -90 -24zM504 478q36 44 138 178 q52 -24 210 -98q-12 -56 -44 -232q-48 -4 -192 -20q-26 42 -112 172zM628 468q16 -14 70 -58q16 20 54 76q-16 14 -72 54q-14 -18 -52 -72z" />
<glyph unicode="&#x26;" horiz-adv-x="980" d="M44 604q50 30 204 124q-28 22 -112 90q-4 52 -14 208q80 30 322 118q64 -32 256 -136q-4 -46 -12 -188q-38 -22 -154 -92q20 -16 82 -64q14 20 62 84q48 -12 190 -52q-22 -36 -92 -142q28 -24 114 -90q-20 -32 -80 -136q-30 22 -118 86q-20 -26 -78 -110q-118 10 -464 44 q-28 64 -106 256zM296 592q12 -26 38 -110h160q8 10 26 46q-34 32 -144 120zM314 896q22 -20 86 -80q28 18 114 72q-4 18 -18 72q-36 4 -152 20q-6 -22 -30 -84z" />
<glyph unicode="'" horiz-adv-x="476" d="M90 762q20 80 82 318q48 -14 190 -54q-38 -70 -156 -280q-28 6 -116 16z" />
<glyph unicode="(" horiz-adv-x="618" d="M104 1000q78 52 308 208q14 -58 58 -228q-38 -14 -148 -64q-6 -118 -20 -474q46 -18 188 -74q-20 -52 -78 -204q-72 46 -288 186q-4 162 -20 650z" />
<glyph unicode=")" horiz-adv-x="700" d="M122 374q50 16 196 68q2 120 2 484q-44 14 -180 64q12 54 50 222q78 -54 316 -208q6 -156 20 -624q-84 -54 -330 -210q-18 52 -74 204z" />
<glyph unicode="*" horiz-adv-x="662" d="M60 878q16 34 60 140q30 -18 126 -74q-2 36 -4 150q36 -6 142 -14q-4 -36 -12 -146q34 16 132 60q12 -36 46 -140q-38 -8 -142 -28q24 -26 94 -104q-28 -20 -116 -84q-22 32 -84 130q-18 -34 -70 -140q-32 26 -120 96q24 26 98 110q-38 10 -150 44z" />
<glyph unicode="+" horiz-adv-x="698" d="M58 726q44 -6 176 -16v2q0 46 -2 190q50 -4 196 -12q-2 -46 -12 -184h170q0 -46 -2 -186q-44 2 -176 10q0 -46 4 -182q-50 0 -200 6q4 44 14 178q-42 -2 -166 -4q0 50 -2 198z" />
<glyph unicode="," horiz-adv-x="386" d="M72 508q52 -2 204 -8q-4 -44 -8 -174q-26 -36 -110 -140q-20 10 -76 46q18 26 72 108q-18 -2 -68 -2q-4 40 -14 170z" />
<glyph unicode="-" d="M114 714q110 -2 444 -14q-2 -40 -10 -158q-104 -4 -416 -12q-4 46 -18 184z" />
<glyph unicode="." horiz-adv-x="368" d="M74 518q46 -2 182 -8q-4 -42 -12 -166q-42 0 -166 -4q0 44 -4 178z" />
<glyph unicode="/" horiz-adv-x="712" d="M58 284q86 212 346 844q50 -28 196 -114q-98 -194 -396 -778q-36 12 -146 48z" />
<glyph unicode="0" horiz-adv-x="720" d="M4 894q66 60 268 244q78 -24 312 -90q28 -68 116 -270q-28 -102 -120 -400l-288 -88q-66 44 -270 176q-4 108 -18 428zM212 634q26 -32 102 -136q34 24 132 100q-2 70 -10 278q-46 6 -190 16q-8 -64 -34 -258z" />
<glyph unicode="1" horiz-adv-x="562" d="M-4 956q76 44 300 182q52 -12 216 -44q-12 -194 -46 -778q-62 8 -246 24q20 142 80 562q-30 -34 -128 -134q-44 46 -176 188z" />
<glyph unicode="2" horiz-adv-x="724" d="M-6 922q64 52 254 218q78 -20 320 -74q34 -70 130 -278q-94 -72 -374 -282q82 10 326 40q-6 -58 -26 -228q-146 6 -584 16q-6 42 -26 170q106 80 422 326q-24 24 -94 98q-34 -38 -134 -150q-54 36 -214 144z" />
<glyph unicode="3" horiz-adv-x="722" d="M-12 924l240 224q82 -18 324 -68q34 -66 142 -260q-38 -28 -150 -114q30 -40 118 -158q-42 -60 -162 -234q-84 4 -330 20q-46 50 -178 200l192 144q28 -54 110 -212q34 24 142 94q-32 36 -126 140q34 28 142 114q-26 32 -106 124q-36 -38 -150 -156q-50 36 -208 142z" />
<glyph unicode="4" horiz-adv-x="752" d="M-14 654q88 118 350 478q52 -32 198 -126q-82 -88 -320 -348q48 2 190 8q8 44 28 174q44 0 176 -6q-4 -38 -10 -154q30 4 124 10q-2 -46 -10 -186q-32 -2 -136 -4q-2 -44 -8 -174q-56 2 -216 10q4 38 16 154q-80 -2 -314 -8q-16 42 -68 172z" />
<glyph unicode="5" d="M-12 442q34 46 128 182q52 -40 208 -154q38 22 148 88q-24 34 -94 126q-38 -16 -148 -60l-176 152q28 120 84 356q132 -12 528 -54q-14 -50 -50 -204q-76 16 -296 72q-18 -36 -66 -136q54 10 214 46q54 -48 220 -188q-18 -76 -70 -300q-78 -22 -314 -86q-78 38 -316 160z " />
<glyph unicode="6" horiz-adv-x="746" d="M-14 726q96 102 380 414q56 -34 228 -140q-60 -46 -238 -192q60 4 232 14q32 -64 132 -258q-24 -50 -100 -196q-72 -20 -294 -88q-76 34 -300 138q-10 76 -40 308zM208 540q42 -26 168 -100q26 30 104 124q-18 32 -74 120q-30 -2 -122 -14q-20 -32 -76 -130z" />
<glyph unicode="7" horiz-adv-x="702" d="M-12 882q18 58 66 232q146 -10 582 -46q8 -42 38 -168q-52 -62 -206 -250q-6 -84 -26 -336q-80 10 -316 44q66 132 264 530q-100 -2 -402 -6z" />
<glyph unicode="8" horiz-adv-x="748" d="M-14 590h2q46 38 140 112q-34 62 -138 246q56 50 220 198q94 -14 370 -52q36 -66 144 -266q-46 -34 -180 -140q28 -36 112 -140q-18 -46 -66 -178q-72 -22 -282 -86q-70 30 -278 114q-10 48 -42 190q-2 0 -2 2zM214 548q12 -24 50 -94q24 -2 98 -6q18 22 64 88 q-24 26 -96 100q-28 -22 -116 -88zM238 876q26 -30 108 -126q28 24 114 98q-10 28 -36 112q-32 0 -126 -4q-14 -20 -60 -80z" />
<glyph unicode="9" horiz-adv-x="746" d="M-14 892q52 62 206 248q80 -8 324 -32q52 -46 204 -188q-18 -80 -74 -322q-68 -80 -272 -312l-176 96q46 54 182 222q-64 -2 -262 -8q-32 74 -132 296zM248 874q12 -28 40 -114q38 -2 148 -8q8 34 30 142q-28 18 -114 70q-24 -22 -104 -90z" />
<glyph unicode=":" horiz-adv-x="384" d="M72 914l200 -8q-4 -44 -6 -174q-46 -2 -178 -8q-2 50 -16 190zM76 530q48 -6 196 -12q0 -44 -6 -174q-44 -2 -176 -6q-4 48 -14 192z" />
<glyph unicode=";" horiz-adv-x="388" d="M72 926q50 -2 198 -8q-2 -44 -4 -174q-46 -2 -178 -6q-2 48 -16 188zM78 492q48 -2 200 -8q0 -42 -6 -172q-28 -34 -112 -140q-16 10 -74 46q18 26 72 106q-18 0 -70 -2q-2 44 -10 170z" />
<glyph unicode="&#x3c;" horiz-adv-x="638" d="M82 706q110 62 438 242q0 -56 4 -228q-56 -24 -220 -94q56 -28 222 -106q-4 -48 -16 -200q-104 56 -418 222q-2 42 -10 164z" />
<glyph unicode="=" horiz-adv-x="646" d="M60 558q120 2 474 6q-2 -34 -8 -140q-114 -6 -452 -24q-4 40 -14 158zM64 840q116 -2 466 -12q-4 -34 -12 -140q-108 -2 -436 -12q-4 40 -18 164z" />
<glyph unicode="&#x3e;" horiz-adv-x="618" d="M82 926q106 -54 426 -212v-164q-106 -60 -420 -236q-4 50 -4 204q54 28 214 106q-52 26 -214 102q0 50 -2 200z" />
<glyph unicode="?" horiz-adv-x="1104" d="M84 890q50 70 202 282q130 -18 518 -74q30 -84 122 -334q-78 -26 -312 -100q0 -26 -2 -110q-56 2 -216 16q0 50 -2 202q68 18 272 76q-8 22 -32 86q-60 6 -234 20l-98 -196q-54 34 -218 132zM356 310q10 48 36 196q54 -4 216 -18q0 -50 6 -200q-66 6 -258 22z" />
<glyph unicode="@" horiz-adv-x="986" d="M66 612q22 94 82 376q108 34 432 130q74 -60 292 -238q-2 -84 -6 -338q-50 -32 -202 -122q-36 18 -134 76q0 10 -4 46q-22 -14 -94 -50q-30 18 -124 78q-6 60 -18 238q50 24 200 98q20 -18 76 -74q4 20 10 74q30 -18 122 -76q-12 -72 -52 -284q20 4 82 18q10 60 48 240 q-52 44 -216 176q-70 -18 -282 -68q-14 -60 -60 -238q32 -60 128 -242q44 4 176 22q14 -30 54 -118q-68 -2 -278 -10q-56 72 -232 286zM434 764q6 -38 18 -154q24 6 90 26q2 24 10 102q-30 6 -118 26z" />
<glyph unicode="A" horiz-adv-x="744" d="M-26 378q50 166 202 658q90 -10 356 -44q50 -160 204 -644q-66 -8 -262 -20l-32 160q-46 -4 -192 -12q-6 -36 -30 -144q-62 12 -246 46zM272 648q38 -4 146 -16q-10 50 -34 206q-16 0 -76 6q-10 -48 -36 -196z" />
<glyph unicode="B" horiz-adv-x="752" d="M-28 1036q120 22 476 90q68 -48 276 -192q-26 -52 -94 -212q30 -34 116 -130q-38 -58 -146 -234q-132 -6 -534 -30q-22 178 -94 708zM250 946q4 -50 16 -204q44 6 174 30q4 28 22 114q-54 16 -212 60zM276 636q2 -40 12 -158q44 6 180 26q2 32 8 134q-50 0 -200 -2z" />
<glyph unicode="C" horiz-adv-x="760" d="M-26 792q44 60 174 242q70 20 280 78q70 -28 280 -114q-28 -54 -100 -210q-46 24 -182 102q-38 -30 -152 -122q2 -46 4 -182q48 -18 194 -74q40 32 154 134q30 -50 126 -192q-76 -44 -298 -172q-94 28 -374 114q-26 100 -106 396z" />
<glyph unicode="D" horiz-adv-x="750" d="M-26 1018l368 96q94 -54 380 -220q-4 -84 -24 -338q-48 -54 -192 -214q-110 -6 -442 -28q-22 176 -90 704zM254 886q10 -98 36 -386q42 16 174 58q12 60 42 236q-62 22 -252 92z" />
<glyph unicode="E" horiz-adv-x="660" d="M-20 618q24 106 98 424q138 -18 556 -70q-6 -50 -34 -206q-72 20 -292 80q-8 -28 -38 -112q60 2 240 12q-6 -46 -30 -180q-56 8 -218 38q2 -28 14 -112q74 10 298 34q4 -52 24 -198q-134 4 -530 18z" />
<glyph unicode="F" horiz-adv-x="648" d="M12 1042q158 18 628 80v-228q-84 0 -334 -4q2 -36 4 -144q64 10 256 34q-4 -50 -16 -194q-56 6 -228 20q4 -64 12 -260q-54 -6 -218 -26q-26 180 -104 722z" />
<glyph unicode="G" horiz-adv-x="808" d="M-16 776q42 66 164 266q76 20 296 80q64 -22 256 -94q-22 -52 -84 -210q-52 24 -206 98q-30 -30 -122 -110q-4 -58 -8 -226q40 -16 152 -72q40 16 158 62q-8 16 -36 64q-36 -16 -142 -62q-2 46 -8 182q90 8 358 30q6 -86 22 -346q-92 -38 -372 -150q-80 28 -322 112 q-28 94 -106 376z" />
<glyph unicode="H" horiz-adv-x="846" d="M-16 1034q68 14 276 52h-4h-2q12 -74 44 -298q56 4 222 20q-4 66 -14 258q66 4 268 18v-740q-50 -2 -204 -16q-8 76 -34 306q-50 -18 -204 -68q6 -54 26 -224q-52 -10 -214 -36q-38 184 -160 728z" />
<glyph unicode="I" horiz-adv-x="396" d="M6 326l32 744q72 -18 290 -68q-30 -166 -122 -658q-52 -4 -200 -18z" />
<glyph unicode="J" horiz-adv-x="722" d="M-12 594q60 32 238 130q6 -60 28 -232q54 22 218 86q-24 128 -98 508q78 -4 310 -14q6 -144 16 -566q-66 -58 -264 -226q-76 16 -306 68q-34 62 -142 246z" />
<glyph unicode="K" horiz-adv-x="816" d="M6 1060q68 6 270 18q4 -68 18 -272q48 76 192 308q54 -38 222 -148q-58 -60 -228 -240q72 -54 280 -214q-48 -40 -194 -164q-60 62 -248 244q4 -62 20 -246q-60 -2 -234 -14q-24 184 -98 728z" />
<glyph unicode="L" horiz-adv-x="680" d="M-10 1036q74 12 294 44q2 -134 10 -530q86 30 342 114q0 -74 -2 -302q-138 -12 -542 -42q-26 180 -102 716z" />
<glyph unicode="M" horiz-adv-x="958" d="M-22 456q68 162 272 650q48 -6 190 -30q16 -60 68 -238q34 54 134 214q44 -8 178 -30q24 -176 94 -708q-70 -4 -284 -18q-2 98 -4 396q-38 -40 -156 -158q-28 50 -116 192q-30 -96 -112 -382v-2q-66 28 -264 114z" />
<glyph unicode="N" horiz-adv-x="826" d="M-12 990q66 22 262 86q68 -96 278 -392q-10 100 -30 394q68 6 276 26q0 -176 6 -704q-50 -18 -204 -72q-72 82 -286 330q10 -82 42 -326q-58 -6 -232 -28q-28 172 -112 686z" />
<glyph unicode="O" horiz-adv-x="826" d="M12 774q58 70 238 282q80 -10 324 -36q50 -56 206 -220q-10 -92 -40 -366q-80 -38 -320 -144q-84 30 -340 116q-18 92 -68 368zM276 582q36 -18 152 -68q36 34 142 134q-24 48 -100 192q-48 -18 -194 -64v-194z" />
<glyph unicode="P" horiz-adv-x="742" d="M-12 1062q108 16 434 64q68 -46 274 -186q-12 -66 -52 -266q-40 -34 -160 -132q-52 4 -204 18q-2 -54 -6 -216q-58 -6 -232 -16q-12 182 -54 734zM272 692q40 6 152 22l24 168l-176 56v-246z" />
<glyph unicode="Q" horiz-adv-x="894" d="M-20 794q62 78 242 306q86 -4 344 -20q58 -56 234 -216l-16 -320q-28 -18 -100 -66q42 -26 168 -100q-52 -38 -198 -154q-30 36 -118 144q-18 -18 -82 -72q-94 30 -368 116q-26 94 -106 382zM266 804l16 -208q42 -16 166 -58q38 38 146 154q-32 50 -130 194 q-48 -20 -198 -82z" />
<glyph unicode="R" horiz-adv-x="776" d="M-14 1054q108 18 430 72q68 -50 270 -194q-12 -58 -48 -222q-34 -24 -134 -96q56 -46 226 -184q-66 -30 -260 -124q-50 74 -204 294q2 -66 6 -260q-60 0 -236 -6q-10 180 -50 720zM262 700q36 4 148 14q8 42 30 166l-176 56q0 -60 -2 -236z" />
<glyph unicode="S" horiz-adv-x="790" d="M-14 480q26 44 108 176q58 -36 244 -146q14 24 66 98q-102 50 -406 200q36 62 142 246q78 16 316 62q62 -32 246 -130q-24 -44 -96 -178q-56 32 -216 126q-16 -24 -62 -94q106 -52 418 -208q-34 -70 -144 -278q-94 -10 -372 -40q-60 42 -244 166z" />
<glyph unicode="T" horiz-adv-x="790" d="M-14 1054q186 10 746 38q2 -54 14 -220q-66 -8 -258 -38q20 -122 84 -490q-72 -4 -290 -18q0 118 -6 476q-66 -8 -268 -40q-4 74 -22 292z" />
<glyph unicode="U" horiz-adv-x="790" d="M-14 492q6 136 26 536q70 -8 274 -28q-10 -116 -48 -460q62 8 250 30q4 88 14 350q62 -14 244 -52q-12 -92 -54 -360q-36 -44 -146 -176q-98 0 -394 2q-42 40 -166 158z" />
<glyph unicode="V" horiz-adv-x="850" d="M-18 930q74 40 294 156q40 -122 168 -494q20 108 84 428q70 -10 278 -44q-52 -158 -206 -630q-72 -6 -292 -22q-82 152 -326 606z" />
<glyph unicode="W" horiz-adv-x="1012" d="M-26 1056q82 14 328 54q8 -120 24 -488q40 52 164 204q32 -56 130 -226q20 96 76 394q68 -20 276 -78q-46 -144 -188 -582q-60 -4 -240 -20q-18 50 -74 208q-28 -46 -114 -184q-60 6 -242 28q-34 172 -140 690z" />
<glyph unicode="X" horiz-adv-x="854" d="M-18 864q54 56 216 216q50 -58 200 -234q40 62 78 126q42 64 80 126q80 -58 240 -172q-58 -52 -228 -218q62 -46 254 -182q-48 -58 -196 -224q-48 52 -198 210q-40 -62 -160 -252q-60 48 -236 186q56 56 222 224q-68 50 -272 194z" />
<glyph unicode="Y" horiz-adv-x="872" d="M-20 1012q80 28 318 112q26 -92 110 -370q48 80 192 310q60 -32 240 -134q-86 -88 -340 -358q4 -62 20 -248q-74 2 -296 10q12 60 52 244q-76 108 -296 434z" />
<glyph unicode="Z" horiz-adv-x="736" d="M-12 780v280q154 6 616 22q18 -56 72 -228q-84 -74 -336 -302l352 80q-2 -68 -4 -272q-156 -12 -630 -44q-4 40 -20 166q84 92 340 368q-98 -18 -390 -70z" />
<glyph unicode="[" horiz-adv-x="620" d="M104 1162q96 6 380 20q-4 -48 -8 -196q-42 6 -162 16q2 -158 16 -638q34 6 142 22q2 -46 14 -186q-82 0 -326 6q-14 238 -56 956z" />
<glyph unicode="\" horiz-adv-x="712" d="M58 1026q48 26 188 108q90 -210 356 -842q-36 -16 -142 -68q-100 200 -402 802z" />
<glyph unicode="]" horiz-adv-x="614" d="M104 1174q96 -4 376 -18q-10 -240 -36 -960q-84 -2 -334 -6q0 46 2 182q42 -4 160 -14v636q-42 -2 -164 -6q0 46 -4 186z" />
<glyph unicode="^" horiz-adv-x="710" d="M80 712q42 90 166 356q38 -2 156 -12q44 -88 172 -354q-46 -8 -186 -22q-16 56 -62 226q-18 -62 -72 -244q-42 12 -174 50z" />
<glyph unicode="`" horiz-adv-x="452" d="M70 1068q32 22 130 94q34 -48 140 -188q-20 -16 -78 -58q-50 40 -192 152z" />
<glyph unicode="a" horiz-adv-x="624" d="M-16 578q52 28 214 114q40 -10 158 -40q2 28 4 108q-78 -6 -320 -24q14 48 58 190q84 -10 334 -40q40 -34 162 -136q-18 -60 -66 -240q18 -36 68 -142q-46 -12 -182 -50q-10 18 -36 70q-70 -16 -282 -68q-28 64 -112 258zM212 562q8 -32 32 -126q22 14 92 58v68h-124z " />
<glyph unicode="b" d="M-18 1030q64 10 254 48q8 -68 24 -268q60 20 236 82q48 -52 198 -208q-34 -84 -136 -332q-64 6 -256 28q0 -12 -2 -46h-236q-20 174 -82 696zM276 668q2 -30 2 -118q34 -14 134 -58q8 54 20 206q-36 -8 -156 -30z" />
<glyph unicode="c" horiz-adv-x="660" d="M-6 702q64 60 258 244q72 -20 288 -78q-20 -48 -80 -188q-34 14 -138 62q-22 -32 -84 -128q34 -34 130 -132q38 36 150 146q32 -42 130 -166q-58 -40 -234 -162q-84 20 -330 80q-22 82 -90 322z" />
<glyph unicode="d" horiz-adv-x="714" d="M-20 582l144 248q62 -6 244 -24q-8 68 -32 266l256 -16l80 -704q-56 -10 -220 -36q-8 18 -20 68l-256 -72q-48 68 -196 270zM228 662q16 -50 64 -192q30 20 118 78q-4 30 -14 114h-168z" />
<glyph unicode="e" horiz-adv-x="706" d="M-8 494q12 80 50 324q74 28 298 116q80 -40 322 -162q-8 -50 -40 -202q-102 0 -408 2q30 -32 126 -124q40 22 166 90q22 -44 88 -174q-84 -14 -334 -56q-68 46 -268 186zM236 692q48 -10 194 -44q4 20 16 86q-30 14 -124 56q-22 -24 -86 -98z" />
<glyph unicode="f" horiz-adv-x="552" d="M0 768q32 2 132 8q-10 56 -36 226q38 28 154 120q62 -14 246 -56q-4 -46 -22 -192q-30 16 -122 64q0 -32 -4 -134q36 4 146 22l8 -184q-34 -4 -140 -8q12 -72 46 -292q-56 -6 -228 -30q-8 74 -30 294q-32 -6 -132 -24q-6 46 -18 186z" />
<glyph unicode="g" horiz-adv-x="654" d="M-16 614q36 60 150 236q58 -14 228 -54q0 24 -2 90q52 0 208 -8q14 -150 50 -604q-58 -42 -238 -168q-64 26 -254 102q22 36 90 138q40 -20 158 -82q14 14 52 58q-2 26 -12 104q-72 -14 -292 -48q-36 58 -138 236zM204 676q10 -48 44 -192q32 18 138 72q0 26 -2 104 q-44 6 -180 16z" />
<glyph unicode="h" horiz-adv-x="726" d="M-12 1048q68 16 274 58q8 -82 30 -326q64 18 250 72q36 -26 140 -108q-12 -100 -46 -404q-54 -2 -212 -16q0 84 4 330h-122q4 -72 22 -294q-56 -8 -218 -38q-32 182 -122 726z" />
<glyph unicode="i" horiz-adv-x="334" d="M6 352q8 122 24 486q62 -8 246 -38q-18 -116 -70 -458q-48 2 -200 10zM70 1100q58 -10 230 -48q-8 -40 -32 -156q-48 4 -194 18q-2 48 -4 186z" />
<glyph unicode="j" horiz-adv-x="446" d="M2 318q48 14 192 50q-26 112 -110 438q74 6 292 18q8 -136 36 -540q-72 -44 -292 -176q-30 52 -118 210zM88 1082q58 2 238 10q-2 -36 -4 -156q-46 -6 -188 -26q-12 42 -46 172z" />
<glyph unicode="k" horiz-adv-x="670" d="M-8 984q62 16 254 66q6 -82 24 -326q42 52 166 206q40 -36 156 -146q-38 -38 -154 -152q48 -28 188 -112q-34 -42 -140 -170q-46 46 -186 182q2 -46 8 -180q-52 -10 -210 -44q-26 170 -106 676z" />
<glyph unicode="l" horiz-adv-x="350" d="M6 1088q68 -6 270 -24q12 -176 38 -708q-52 -8 -210 -40q-26 194 -98 772z" />
<glyph unicode="m" horiz-adv-x="898" d="M-20 802q62 16 246 62q6 -38 28 -146q34 36 136 142q28 -24 114 -98q26 30 112 112q62 -28 246 -116q-6 -94 -30 -378q-50 -6 -194 -28q0 72 -2 292q-18 -4 -70 -20q0 -64 4 -256q-44 -8 -178 -34q-10 70 -34 282q-20 -6 -76 -18q10 -62 42 -244q-52 -18 -206 -68 q-34 130 -138 516z" />
<glyph unicode="n" horiz-adv-x="692" d="M-10 802q62 10 248 48q6 -32 18 -130q52 36 204 142q48 -30 186 -116q-4 -94 -14 -378l-208 -16q-4 76 -14 296q-34 -6 -142 -32q6 -60 24 -246q-54 -14 -208 -64q-24 124 -94 496z" />
<glyph unicode="o" horiz-adv-x="680" d="M-10 742q62 46 244 182l248 -80q38 -48 154 -192q-18 -70 -74 -286q-80 -18 -318 -74q-62 38 -246 158q-2 72 -8 292zM216 514q34 -8 138 -22q16 34 56 146q-46 16 -184 60q-2 -46 -10 -184z" />
<glyph unicode="p" horiz-adv-x="738" d="M-12 832q66 18 264 68q0 -24 6 -96q64 18 260 74q44 -58 176 -238q-38 -66 -146 -270q-62 10 -248 34q4 -66 16 -270q-56 0 -220 4q-26 174 -108 694zM276 674q0 -32 2 -128q36 -8 146 -36q12 50 48 196q-48 -8 -196 -32z" />
<glyph unicode="q" horiz-adv-x="772" d="M-14 614q38 62 148 250q66 -10 262 -30q-2 16 -2 64q60 -6 250 -20q20 -176 84 -696q-58 -12 -226 -44q-12 70 -44 286q-72 -20 -280 -74q-46 66 -192 264zM228 694q18 -48 78 -194q28 22 120 88q-2 26 -6 108q-48 0 -192 -2z" />
<glyph unicode="r" horiz-adv-x="608" d="M-6 830q66 10 262 34q2 -32 6 -126q40 48 160 194q40 -24 156 -100q-24 -52 -98 -214q-24 26 -102 100q-26 -32 -102 -128q4 -58 12 -234q-52 -10 -206 -38z" />
<glyph unicode="s" horiz-adv-x="672" d="M-24 488q18 32 72 132q64 -38 254 -148l40 88q-78 36 -310 136q26 50 108 190q74 6 294 26q50 -28 196 -112q-16 -38 -62 -142q-52 30 -206 128q-12 -18 -42 -74q74 -38 296 -154q-22 -50 -90 -200q-86 -6 -346 -24q-50 40 -204 154z" />
<glyph unicode="t" horiz-adv-x="560" d="M-4 676v190q40 -4 154 -18q2 48 4 190q58 -10 234 -40q-4 -42 -18 -172q36 0 148 -4q-4 -46 -12 -184q-38 2 -154 14q-4 -78 -14 -312q-56 4 -222 20q4 78 16 310q-32 2 -136 6z" />
<glyph unicode="u" horiz-adv-x="712" d="M-10 474q6 100 28 404l272 16q-14 -100 -58 -392q40 8 168 40v252q68 -6 266 -26q-14 -104 -66 -414q-48 -6 -196 -22q-2 16 -4 58q-58 -12 -234 -44q-44 30 -176 128z" />
<glyph unicode="v" horiz-adv-x="688" d="M-10 756q54 32 214 130q36 -82 144 -322q20 72 78 292q54 -10 220 -38q-40 -114 -156 -452q-60 -8 -240 -38q-64 106 -260 428z" />
<glyph unicode="w" horiz-adv-x="804" d="M-20 798q60 24 240 90q18 -82 72 -330q22 36 90 146q30 -32 126 -128q4 62 20 252q56 -2 220 -16q-24 -110 -90 -442q-38 -8 -156 -32q-24 42 -100 160q-16 -42 -66 -170h-168q-48 118 -188 470z" />
<glyph unicode="x" horiz-adv-x="704" d="M-10 744q40 38 158 160q44 -40 174 -156q28 44 110 174q48 -30 188 -118q-36 -46 -150 -182q48 -34 190 -138q-40 -44 -158 -174q-38 36 -150 138q-24 -44 -100 -176q-54 40 -214 158q40 40 160 162q-52 36 -208 152z" />
<glyph unicode="y" horiz-adv-x="644" d="M-8 508l48 368q56 0 230 4l-56 -328q34 2 144 6q10 60 42 240q56 -10 224 -48q-28 -112 -110 -446q-60 -40 -246 -160q-68 18 -272 68q22 48 86 184q44 -28 170 -102q20 38 84 148q-28 -12 -118 -42q-58 26 -226 108z" />
<glyph unicode="z" horiz-adv-x="608" d="M-6 862q118 6 470 26q22 -42 90 -168l-200 -192q48 14 194 66q8 -56 32 -222q-28 -4 -118 -12q-90 -10 -366 -46q-10 36 -42 142q52 60 204 240q-58 -22 -226 -82q-10 60 -38 248z" />
<glyph unicode="{" horiz-adv-x="608" d="M94 696q24 24 98 100q-18 80 -68 320q80 28 326 110q8 -44 26 -182q-36 -6 -146 -24q6 -58 28 -236q-24 -24 -92 -86l102 -102q-8 -60 -34 -240q38 -8 148 -32q-6 -48 -30 -182q-76 36 -308 142q14 76 50 308q-24 26 -100 104z" />
<glyph unicode="|" horiz-adv-x="484" d="M112 1168q60 -2 238 -10q-8 -254 -34 -1020q-40 -4 -158 -12q-12 260 -46 1042z" />
<glyph unicode="}" horiz-adv-x="626" d="M104 1038l24 184q82 -28 328 -104q-16 -82 -62 -322q28 -24 100 -98q-24 -26 -98 -104q14 -76 56 -308q-74 -38 -304 -148q-8 46 -32 178q36 10 144 38q-8 60 -36 240q24 24 98 104q-24 20 -92 84q4 58 22 236q-38 6 -148 20z" />
<glyph unicode="~" horiz-adv-x="896" d="M70 636q62 44 246 172q48 -44 194 -170q32 42 134 166q34 -52 140 -206q-68 -40 -270 -158q-44 36 -176 152q-34 -34 -134 -136q-34 48 -134 180z" />
<glyph unicode="&#xa2;" horiz-adv-x="734" d="M10 690q66 62 264 250q26 -8 106 -32q6 38 24 148q36 -12 142 -46q-12 -34 -52 -132q18 -6 70 -26q-20 -46 -76 -188q-38 16 -146 64q-20 -36 -80 -136q34 -32 130 -124q36 38 146 150q34 -44 138 -176q-56 -38 -236 -154q-22 4 -82 20q-6 -30 -14 -118q-36 10 -142 40 q8 26 34 106q-30 8 -128 32q-24 80 -98 322z" />
<glyph unicode="&#xa3;" horiz-adv-x="940" d="M100 756q32 2 124 6q-12 48 -44 180q32 32 132 126q82 10 328 36q-10 -56 -36 -222q-40 4 -162 22v-112q28 2 116 14q2 -32 12 -134q-32 -2 -118 -14q2 -32 14 -126q82 20 324 76q-8 -62 -28 -254q-146 -12 -590 -40q-4 40 -8 162q26 6 106 16q-2 28 -6 116 q-38 -10 -146 -38q-4 46 -18 186z" />
<glyph unicode="&#xa5;" horiz-adv-x="916" d="M2 982q74 32 292 130q34 -88 140 -354q42 80 174 324q62 -28 246 -114q-42 -52 -166 -214q22 0 86 -2v-100q-46 -2 -182 -4q-10 -14 -46 -56q0 -4 2 -14q50 0 200 4q0 -22 2 -94q-46 -2 -188 -6q6 -36 22 -142q-70 -4 -284 -6q2 32 10 130q-46 -2 -192 -8q-2 30 -14 120 q54 2 216 6q0 4 2 16q-10 12 -42 42q-54 -2 -216 -4v138q28 -2 102 -6q-40 56 -164 214z" />
<glyph unicode="&#xad;" d="M114 714q110 -2 444 -14q-2 -40 -10 -158q-104 -4 -416 -12q-4 46 -18 184z" />
<glyph unicode="&#xc0;" horiz-adv-x="832" d="M4 362q50 164 202 658q88 -12 356 -44q50 -162 202 -646q-64 -4 -262 -20q-6 40 -30 162q-48 -4 -192 -14q-6 -34 -30 -142q-62 10 -246 46zM264 1216q30 20 122 90q36 -46 136 -182q-20 -12 -76 -54q-46 34 -182 146zM302 632q36 -4 146 -18q-8 54 -34 208q-18 2 -76 6 q-10 -48 -36 -196z" />
<glyph unicode="&#xc1;" horiz-adv-x="850" d="M8 366q50 164 202 660q90 -14 356 -46q50 -162 202 -646q-64 -4 -260 -20q-8 40 -32 162q-48 -4 -192 -14q-6 -34 -30 -142q-62 10 -246 46zM306 636q38 -4 146 -18q-8 54 -34 208q-18 2 -76 6q-10 -48 -36 -196zM318 1154q40 38 160 154q28 -28 114 -110 q-52 -28 -204 -108q-18 14 -70 64z" />
<glyph unicode="&#xc2;" horiz-adv-x="844" d="M16 362q50 164 202 658q88 -12 356 -44q50 -162 202 -646q-64 -6 -262 -18q-6 38 -30 160q-48 -4 -192 -14q-6 -34 -30 -142q-62 10 -246 46zM236 1166q30 34 124 134q36 -6 142 -26q22 -38 92 -160q-34 -6 -132 -24q-10 28 -42 110q-18 -28 -68 -110q-28 20 -116 76z M314 632q36 -4 146 -18q-8 54 -34 208q-18 2 -76 6q-10 -48 -36 -196z" />
<glyph unicode="&#xc3;" horiz-adv-x="840" d="M8 362q50 164 204 658q88 -12 356 -44q50 -164 202 -648q-66 -4 -262 -20q-8 42 -30 162q-48 -2 -192 -12q-8 -34 -32 -142q-62 10 -246 46zM184 1226q46 18 182 74q28 -32 110 -122q26 18 104 74q16 -30 70 -122q-44 -20 -180 -82q-30 32 -108 120q-24 -18 -98 -74 q-20 34 -80 132zM308 630q36 -2 144 -16q-6 52 -32 206q-18 2 -76 8q-8 -50 -36 -198z" />
<glyph unicode="&#xc4;" horiz-adv-x="842" d="M4 364q50 166 202 658q88 -12 356 -44q50 -160 202 -644q-64 -6 -262 -20q-6 40 -30 160q-48 -4 -192 -14q-6 -34 -30 -142q-62 10 -246 46zM210 1248q36 0 146 -2q-2 -32 -10 -130q-32 -2 -126 -4q-4 34 -10 136zM302 634q36 -4 146 -16q-8 52 -34 206q-18 2 -76 6 q-10 -48 -36 -196zM452 1096q2 36 8 138q36 -8 146 -28q-8 -30 -32 -130q-32 8 -122 20z" />
<glyph unicode="&#xc5;" horiz-adv-x="862" d="M12 358q50 164 202 660q90 -14 356 -46q50 -160 202 -644q-64 -6 -260 -20q-8 38 -32 160q-48 -2 -192 -12q-6 -36 -30 -144q-62 10 -246 46zM258 1218q30 28 120 118q42 -20 164 -76q-12 -42 -40 -168q-42 -4 -170 -20q-16 38 -74 146zM310 628q38 -4 146 -18 q-8 54 -34 208q-18 2 -76 6q-10 -48 -36 -196zM352 1218q10 -20 40 -82q18 14 64 54q-8 14 -38 64q-14 -10 -66 -36z" />
<glyph unicode="&#xc8;" horiz-adv-x="744" d="M8 598q24 104 96 424q140 -18 560 -68q-8 -54 -34 -210q-74 22 -294 84q-8 -28 -38 -114q60 2 240 10q-6 -46 -30 -180q-56 12 -218 40q4 -26 14 -110q74 6 298 30q6 -48 24 -198q-132 6 -530 18q-22 68 -88 274zM278 1214q32 22 124 90q36 -46 136 -182q-20 -12 -76 -54 q-46 36 -184 146z" />
<glyph unicode="&#xc9;" horiz-adv-x="758" d="M16 602q24 106 96 426q140 -18 560 -70q-8 -54 -36 -208q-72 20 -292 82q-8 -28 -38 -114q60 4 240 10q-6 -44 -30 -180q-56 12 -218 42q4 -28 14 -112q74 6 298 30q6 -48 24 -196q-132 6 -530 18q-22 66 -88 272zM302 1148q40 40 160 156q30 -28 116 -112 q-54 -26 -206 -106q-16 14 -70 62z" />
<glyph unicode="&#xca;" horiz-adv-x="754" d="M12 596q24 104 96 424q140 -18 560 -70q-8 -52 -34 -208q-74 20 -294 82q-8 -28 -38 -112l240 8q-6 -44 -30 -178q-56 10 -218 40q4 -28 14 -112q74 8 298 32q6 -50 24 -198q-132 6 -530 18q-22 68 -88 274zM232 1162q34 34 128 136q36 -8 138 -28q24 -42 92 -162 q-32 -4 -132 -22q-8 28 -42 110q-14 -28 -64 -110q-32 18 -120 76z" />
<glyph unicode="&#xcb;" horiz-adv-x="772" d="M24 600q24 108 98 426q138 -18 556 -70q-6 -52 -34 -206q-72 20 -292 80q-8 -28 -38 -114q60 2 240 12q-6 -44 -30 -182q-56 12 -218 42q2 -28 14 -112q74 8 298 32q6 -50 24 -196q-132 4 -530 18q-22 66 -88 270zM234 1246h144q-2 -32 -8 -132q-34 -2 -128 -4 q-2 36 -8 136zM476 1096q2 34 8 138q36 -8 146 -28q-10 -32 -34 -132q-30 8 -120 22z" />
<glyph unicode="&#xcc;" horiz-adv-x="468" d="M56 300q8 188 32 744q72 -16 290 -68q-30 -162 -122 -656q-52 -4 -200 -20zM102 1208q30 22 122 88q34 -44 138 -180l-80 -56q-44 38 -180 148z" />
<glyph unicode="&#xcd;" horiz-adv-x="510" d="M46 310l32 744q72 -18 290 -68q-30 -164 -122 -658q-52 -4 -200 -18zM100 1146q40 40 160 158q30 -30 112 -114q-50 -26 -202 -106q-18 14 -70 62z" />
<glyph unicode="&#xce;" horiz-adv-x="596" d="M54 302q8 188 32 746q72 -16 290 -70q-30 -162 -122 -656q-52 -4 -200 -20zM64 1160q32 34 126 136q34 -8 140 -28q22 -38 90 -160q-32 -6 -132 -22q-8 26 -38 108q-18 -26 -70 -110q-28 20 -116 76z" />
<glyph unicode="&#xcf;" horiz-adv-x="598" d="M78 1246h146q-4 -32 -10 -132q-32 0 -128 -4q-2 36 -8 136zM92 310q6 184 32 742q72 -16 290 -68q-30 -164 -122 -656q-52 -6 -200 -18zM320 1096q2 34 8 138q36 -8 146 -26q-8 -34 -34 -130q-30 4 -120 18z" />
<glyph unicode="&#xd2;" horiz-adv-x="906" d="M32 752q60 72 240 284q82 -10 324 -36q50 -56 208 -220q-12 -94 -42 -366q-80 -38 -320 -146q-84 32 -338 118q-18 92 -72 366zM296 562q40 -18 156 -66q34 32 140 132q-24 48 -96 190q-52 -14 -200 -62v-194zM364 1218l120 88q36 -44 138 -182q-20 -12 -78 -54 q-44 38 -180 148z" />
<glyph unicode="&#xd3;" horiz-adv-x="854" d="M16 754q58 72 238 284q82 -10 324 -36q54 -56 206 -220q-8 -94 -40 -366q-80 -38 -318 -146q-86 32 -340 118q-18 92 -70 366zM280 564q38 -18 152 -66q36 32 142 132q-24 48 -98 190q-48 -14 -196 -62v-194zM332 1154q40 36 160 154q28 -30 112 -110q-50 -30 -202 -110 q-18 16 -70 66z" />
<glyph unicode="&#xd4;" horiz-adv-x="922" d="M20 752q60 70 240 282q80 -10 324 -36q50 -56 208 -222q-12 -92 -42 -364q-80 -38 -320 -144q-84 30 -338 116zM282 1166q32 34 126 134q36 -6 140 -26q24 -38 92 -160q-34 -6 -132 -22q-10 26 -40 108q-18 -26 -68 -110q-30 20 -118 76zM284 560q38 -18 156 -68 q34 34 140 134q-24 48 -100 190q-48 -16 -196 -62v-194z" />
<glyph unicode="&#xd5;" horiz-adv-x="858" d="M4 756q60 70 238 280q82 -8 324 -36q54 -56 206 -220q-8 -94 -38 -366q-82 -36 -320 -142q-86 28 -340 114q-18 92 -70 370zM198 1230q46 18 186 72q26 -30 110 -120q24 20 100 74q18 -30 74 -122q-46 -20 -184 -82q-26 30 -108 118q-24 -16 -96 -72q-20 34 -82 132z M270 562q36 -18 154 -66q34 32 140 134q-26 46 -100 188q-48 -14 -194 -62v-194z" />
<glyph unicode="&#xd6;" horiz-adv-x="890" d="M8 760q60 70 240 282q82 -10 324 -38q52 -56 208 -220q-10 -92 -40 -366q-82 -34 -320 -142q-86 28 -340 114q-18 92 -72 370zM266 1250q36 -2 144 -2q-2 -32 -10 -132q-30 0 -128 -2q-2 32 -6 136zM272 566q40 -18 158 -66q34 34 138 134q-24 46 -96 190l-200 -64v-194z M506 1098q2 36 10 136q36 -6 144 -26q-6 -32 -32 -130q-30 6 -122 20z" />
<glyph unicode="&#xd9;" horiz-adv-x="856" d="M32 482q6 134 26 534q68 -6 274 -26q-12 -116 -50 -462q62 8 252 32q2 88 14 348q62 -12 242 -52q-12 -90 -52 -356q-38 -44 -148 -178q-96 2 -394 2q-42 40 -164 158zM306 1212q32 22 124 90q32 -46 136 -180q-20 -14 -80 -54q-44 34 -180 144z" />
<glyph unicode="&#xda;" horiz-adv-x="878" d="M26 490q6 134 26 532q68 -6 274 -26q-12 -114 -50 -460q62 10 252 32q2 88 14 348q60 -12 242 -52q-12 -90 -52 -358q-38 -44 -148 -176q-96 0 -394 2q-42 40 -164 158zM354 1152q42 40 160 154q28 -26 114 -110q-50 -26 -202 -110q-18 18 -72 66z" />
<glyph unicode="&#xdb;" horiz-adv-x="882" d="M24 482q8 134 28 534q68 -8 276 -28q-14 -114 -52 -460q62 10 248 32q6 88 18 348q60 -12 242 -52q-12 -90 -52 -358q-38 -44 -148 -176q-98 0 -394 2q-42 40 -166 158zM258 1166q34 34 128 134q34 -6 138 -26q24 -42 94 -160q-34 -8 -132 -24q-12 28 -42 110 q-18 -30 -68 -110q-30 20 -118 76z" />
<glyph unicode="&#xdc;" horiz-adv-x="862" d="M26 486q6 136 26 536q70 -8 274 -26q-10 -118 -48 -462q62 8 250 30q4 88 14 350q62 -14 244 -54q-12 -90 -54 -356q-36 -46 -146 -178q-98 0 -394 2q-42 40 -166 158zM260 1244h144q-2 -34 -8 -132q-32 0 -128 -4zM500 1094q2 34 10 136q36 -6 144 -26q-6 -32 -32 -130 q-30 4 -122 20z" />
<glyph unicode="&#xe0;" horiz-adv-x="720" d="M10 564q54 28 214 114q40 -12 160 -42q0 28 4 110l-320 -24q14 46 56 190q84 -10 338 -40q38 -34 158 -136q-16 -60 -66 -240q18 -36 68 -144q-46 -10 -182 -48q-8 18 -34 70q-70 -18 -282 -68q-28 64 -114 258zM240 548q8 -32 30 -128q24 16 94 60q0 16 -2 66 q-30 0 -122 2zM290 1098q30 22 122 90q36 -46 138 -180q-20 -14 -78 -56q-46 36 -182 146z" />
<glyph unicode="&#xe1;" horiz-adv-x="724" d="M26 572q54 28 214 114q40 -10 160 -42q0 26 4 108q-80 -4 -320 -22q12 46 56 190q84 -12 338 -40q38 -34 158 -136q-16 -60 -66 -242q18 -36 68 -142q-46 -10 -182 -48q-10 18 -34 68q-70 -16 -284 -66q-26 64 -112 258zM256 554q8 -30 30 -126q24 16 94 58q0 18 -2 68 h-122zM316 1036q40 40 160 154q28 -26 114 -110q-52 -26 -202 -108z" />
<glyph unicode="&#xe2;" horiz-adv-x="714" d="M20 566q52 28 214 114q40 -10 158 -42q2 28 4 108q-78 -4 -320 -22q14 46 58 190q84 -10 334 -40q40 -34 162 -136q-18 -60 -66 -242q18 -36 68 -142q-46 -10 -182 -48q-10 18 -36 70q-70 -18 -282 -68q-28 64 -112 258zM192 1050q30 32 126 134q34 -6 140 -26 q22 -40 90 -162q-32 -6 -132 -22q-8 28 -40 108q-16 -26 -68 -110q-28 20 -116 78zM248 550l32 -128q22 16 92 60v66q-30 0 -124 2z" />
<glyph unicode="&#xe3;" horiz-adv-x="724" d="M20 568q52 28 212 114q40 -8 160 -40q2 26 4 108l-320 -24q14 48 58 192q84 -12 334 -40q40 -36 162 -136q-18 -62 -66 -242q14 -36 66 -142q-44 -12 -182 -48q-8 18 -34 68q-70 -16 -282 -66zM170 1116q44 16 182 72q28 -28 110 -122q26 20 104 76q18 -28 70 -122 q-44 -20 -180 -80q-28 28 -108 118l-96 -72q-24 30 -82 130zM246 552q10 -30 34 -126q22 14 92 58q0 18 -2 68h-124z" />
<glyph unicode="&#xe4;" horiz-adv-x="698" d="M14 564q54 28 214 114q40 -8 158 -40q2 26 4 108q-78 -6 -320 -24q14 48 58 190q84 -10 336 -38q38 -36 160 -136q-18 -62 -66 -242q16 -36 66 -142q-44 -12 -180 -48q-10 16 -36 68q-70 -18 -282 -68q-28 66 -112 258zM210 1138q36 0 146 -2q-2 -34 -12 -130 q-30 -2 -128 -4q0 32 -6 136zM244 548q6 -30 30 -126q22 14 92 58q0 18 -2 68h-120zM452 988l8 136q36 -8 146 -28q-8 -30 -32 -130q-32 6 -122 22z" />
<glyph unicode="&#xe5;" horiz-adv-x="712" d="M6 562q56 28 214 114q40 -8 160 -40q0 26 4 108l-320 -24q14 48 56 190q84 -10 338 -40q38 -34 158 -136q-16 -60 -66 -240q18 -36 68 -142q-46 -12 -182 -48l-34 68q-70 -18 -282 -68q-28 66 -114 258zM216 1102l120 120q40 -20 160 -78q-8 -38 -36 -164 q-42 -6 -170 -20q-18 36 -74 142zM236 546q8 -32 30 -128q24 16 94 60q0 18 -2 68h-122zM310 1102q8 -18 40 -78q18 12 64 50q-10 18 -38 64q-16 -8 -66 -36z" />
<glyph unicode="&#xe8;" horiz-adv-x="724" d="M0 480q12 82 50 324q74 28 298 116q80 -40 322 -162q-8 -50 -40 -202q-102 0 -408 2q30 -32 126 -124q40 22 166 90q22 -44 88 -174q-84 -14 -334 -56q-68 46 -268 186zM238 1096l120 88q36 -44 136 -180q-18 -14 -76 -54q-46 36 -180 146zM244 678q48 -10 192 -44 q4 20 18 86q-32 14 -124 56q-22 -24 -86 -98z" />
<glyph unicode="&#xe9;" horiz-adv-x="760" d="M16 486q12 82 50 326q74 28 298 116q80 -42 322 -164q-8 -50 -40 -200q-100 0 -408 2q30 -32 126 -126q40 24 166 90q22 -42 88 -174q-84 -12 -334 -54q-68 46 -268 184zM220 1034q40 40 160 154q28 -26 112 -110q-50 -26 -202 -108q-18 16 -70 64zM260 684 q48 -10 194 -44l16 88q-30 14 -124 56q-22 -24 -86 -100z" />
<glyph unicode="&#xea;" horiz-adv-x="758" d="M16 488q12 80 50 324q74 28 298 116q80 -42 322 -162q-8 -50 -40 -202q-102 0 -408 2q30 -32 126 -124q40 22 166 90q22 -44 88 -174q-84 -14 -334 -56q-68 46 -268 186zM234 1054q30 34 124 134q36 -6 140 -28q24 -40 92 -160q-34 -6 -132 -22q-10 26 -42 110 q-16 -30 -66 -110q-30 16 -116 76zM260 684q48 -10 194 -44l16 88q-30 14 -124 56q-22 -24 -86 -100z" />
<glyph unicode="&#xeb;" horiz-adv-x="788" d="M20 490q12 80 50 322q74 30 298 118q80 -40 324 -164q-10 -50 -42 -202q-100 2 -408 2q32 -30 126 -124q40 22 166 92q22 -44 88 -174q-84 -14 -334 -56q-66 46 -268 186zM230 1134h146q-2 -34 -8 -132q-34 0 -128 -4q-2 34 -10 136zM264 688q48 -12 194 -44q4 22 16 84 q-30 16 -124 58q-22 -26 -86 -98zM472 984q2 34 10 136q36 -6 144 -26q-8 -32 -32 -130q-32 4 -122 20z" />
<glyph unicode="&#xec;" horiz-adv-x="396" d="M36 350q8 122 24 486q62 -10 246 -38q-18 -118 -70 -460q-50 2 -200 12zM68 1096q30 22 122 90q36 -46 138 -180q-20 -14 -78 -54q-46 34 -182 144z" />
<glyph unicode="&#xed;" horiz-adv-x="444" d="M30 348q6 122 24 486q62 -8 244 -38q-18 -116 -68 -458q-48 2 -200 10zM78 1030q40 40 158 156q28 -28 114 -112q-50 -26 -202 -108q-18 16 -70 64z" />
<glyph unicode="&#xee;" horiz-adv-x="500" d="M66 1050q30 34 126 134q34 -6 140 -26q22 -40 92 -160q-32 -8 -132 -24q-10 28 -42 110q-18 -30 -68 -110q-28 18 -116 76zM70 352q6 122 24 486q62 -8 244 -38q-18 -116 -66 -458q-50 2 -202 10z" />
<glyph unicode="&#xef;" horiz-adv-x="498" d="M40 1170q38 0 146 -2q-2 -34 -10 -130q-32 -2 -128 -4q-2 32 -8 136zM62 356q6 120 24 486q62 -10 244 -40q-18 -114 -68 -458q-50 2 -200 12zM282 1020q2 32 8 136q38 -8 146 -28q-8 -32 -32 -130q-32 6 -122 22z" />
<glyph unicode="&#xf2;" horiz-adv-x="734" d="M20 722q60 46 242 182q62 -20 250 -82q36 -48 152 -190q-18 -74 -74 -286q-78 -18 -318 -76q-62 40 -246 158q0 74 -6 294zM246 492q32 -6 136 -24q14 38 58 150q-46 16 -186 60q-2 -46 -8 -186zM294 1094q30 22 120 90q36 -46 140 -180l-80 -56q-46 36 -180 146z" />
<glyph unicode="&#xf3;" horiz-adv-x="758" d="M18 732q60 46 242 182q62 -20 250 -82q36 -48 152 -190q-18 -72 -74 -284q-78 -20 -318 -78q-62 40 -244 158q-2 74 -8 294zM244 502q32 -6 138 -22q14 38 58 148q-48 16 -188 60q-2 -46 -8 -186zM318 1042q40 38 160 154q30 -28 112 -110q-50 -30 -202 -110 q-18 16 -70 66z" />
<glyph unicode="&#xf4;" horiz-adv-x="762" d="M20 728q62 46 244 182q62 -20 248 -78q36 -50 154 -192q-20 -72 -76 -286q-78 -20 -316 -78q-62 40 -246 160q-2 74 -8 292zM218 1054q32 32 126 134q36 -8 140 -28q22 -40 94 -160q-34 -6 -132 -24q-12 28 -42 110q-18 -28 -68 -110q-30 18 -118 78zM246 498 q34 -4 138 -22q16 38 56 148q-46 16 -186 62q-2 -46 -8 -188z" />
<glyph unicode="&#xf5;" horiz-adv-x="788" d="M22 730q62 46 244 182q62 -20 248 -82q38 -46 154 -190q-18 -72 -76 -284q-78 -20 -316 -78q-62 40 -246 158q-2 76 -8 294zM186 1116q46 18 184 74q26 -32 110 -122q26 18 104 76q18 -32 70 -124q-46 -20 -182 -82q-26 32 -106 120q-24 -18 -96 -74q-22 34 -84 132z M248 500q34 -4 138 -22q16 38 56 148q-46 16 -184 62q-4 -46 -10 -188z" />
<glyph unicode="&#xf6;" horiz-adv-x="774" d="M26 728q62 46 244 182q62 -20 248 -82q38 -48 154 -190q-18 -74 -74 -286q-80 -18 -318 -76q-62 40 -246 160q-2 72 -8 292zM220 1142h146q-2 -34 -10 -132q-32 0 -126 -6q-4 36 -10 138zM252 498q34 -6 138 -24q16 38 60 150q-50 16 -188 60q-2 -46 -10 -186zM462 992 q2 34 10 136q34 -6 144 -26q-8 -34 -32 -130q-32 4 -122 20z" />
<glyph unicode="&#xf7;" horiz-adv-x="618" d="M16 730q134 -2 534 -6q-2 -32 -6 -122q-130 -2 -520 -10q-2 34 -8 138zM198 358q2 36 6 142h154q4 -34 10 -136q-42 -2 -170 -6zM200 970q42 -4 172 -12q-2 -34 -4 -138h-160q-4 38 -8 150z" />
<glyph unicode="&#xf9;" horiz-adv-x="806" d="M16 460q8 100 28 404l272 16q-14 -100 -58 -392q40 8 168 40q0 64 2 252q66 -6 266 -26q-16 -104 -68 -414q-48 -6 -196 -22q-2 16 -4 58q-58 -12 -232 -44q-44 30 -178 128zM264 1096l120 88q36 -44 140 -178q-20 -16 -80 -58q-46 38 -180 148z" />
<glyph unicode="&#xfa;" horiz-adv-x="796" d="M12 464q8 100 28 404l272 16q-14 -100 -58 -392q40 8 168 40q0 64 2 252q66 -6 266 -26q-16 -104 -68 -414q-48 -6 -196 -22q-2 14 -4 58q-58 -12 -232 -46q-44 32 -178 130zM282 1036q40 40 158 154q28 -26 114 -110q-50 -28 -202 -108q-18 16 -70 64z" />
<glyph unicode="&#xfb;" horiz-adv-x="772" d="M14 466q6 100 26 404l272 16q-12 -98 -60 -392q42 10 170 40q0 64 2 254q66 -6 266 -26q-16 -102 -66 -416q-50 -4 -198 -22q0 16 -4 60q-56 -14 -232 -46q-44 30 -176 128zM208 1058q32 32 126 134q36 -8 142 -28q22 -40 90 -160q-34 -6 -130 -24q-12 28 -42 110 q-18 -28 -68 -110q-30 18 -118 78z" />
<glyph unicode="&#xfc;" horiz-adv-x="764" d="M16 462q6 100 26 406q68 2 272 14q-14 -96 -58 -392q40 12 168 40q0 64 2 256q66 -8 266 -28q-16 -102 -68 -416q-48 -4 -196 -18q0 12 -4 56q-56 -12 -232 -46q-44 34 -176 128zM216 1134h142q-2 -32 -8 -132q-32 -2 -128 -4q0 36 -6 136zM456 986q2 32 10 136 q36 -6 146 -26q-10 -34 -34 -132q-30 6 -122 22z" />
<glyph unicode="&#x2000;" horiz-adv-x="682" />
<glyph unicode="&#x2001;" horiz-adv-x="1365" />
<glyph unicode="&#x2002;" horiz-adv-x="682" />
<glyph unicode="&#x2003;" horiz-adv-x="1365" />
<glyph unicode="&#x2004;" horiz-adv-x="455" />
<glyph unicode="&#x2005;" horiz-adv-x="341" />
<glyph unicode="&#x2006;" horiz-adv-x="227" />
<glyph unicode="&#x2007;" horiz-adv-x="227" />
<glyph unicode="&#x2008;" horiz-adv-x="170" />
<glyph unicode="&#x2009;" horiz-adv-x="273" />
<glyph unicode="&#x200a;" horiz-adv-x="75" />
<glyph unicode="&#x2010;" d="M114 714q110 -2 444 -14q-2 -40 -10 -158q-104 -4 -416 -12q-4 46 -18 184z" />
<glyph unicode="&#x2011;" d="M114 714q110 -2 444 -14q-2 -40 -10 -158q-104 -4 -416 -12q-4 46 -18 184z" />
<glyph unicode="&#x2012;" d="M114 714q110 -2 444 -14q-2 -40 -10 -158q-104 -4 -416 -12q-4 46 -18 184z" />
<glyph unicode="&#x2013;" horiz-adv-x="836" d="M140 700q126 -2 508 -12q-2 -36 -10 -146q-122 -4 -486 -16q-4 42 -12 174z" />
<glyph unicode="&#x2014;" horiz-adv-x="1242" d="M144 696q240 -4 962 -12q-2 -36 -6 -138q-236 -4 -946 -14q-2 40 -10 164z" />
<glyph unicode="&#x2019;" horiz-adv-x="1148" d="M166 1060q46 -2 184 -10q-2 -38 -6 -156q-24 -32 -100 -128q-18 10 -70 42q18 24 66 98q-16 -2 -62 -4q-2 40 -12 158z" />
<glyph unicode="&#x201c;" horiz-adv-x="1148" d="M134 776q2 40 4 158q24 32 100 130q18 -12 70 -42q-16 -26 -66 -98q16 0 62 2q4 -38 14 -156q-46 2 -184 6zM378 784q4 40 12 156q26 32 106 126q18 -12 68 -46q-18 -24 -70 -94h62q2 -40 6 -158z" />
<glyph unicode="&#x201d;" horiz-adv-x="1148" d="M160 1060q46 -2 182 -10q0 -38 -4 -156q-26 -32 -102 -128q-16 10 -68 42q16 24 66 98q-16 -2 -62 -4q-4 40 -12 158zM406 814q18 24 72 94q-16 0 -62 2q0 38 -2 156q46 -6 182 -20q-4 -40 -14 -156q-28 -30 -110 -122q-16 12 -66 46z" />
<glyph unicode="&#x202f;" horiz-adv-x="273" />
<glyph unicode="&#x205f;" horiz-adv-x="341" />
<glyph unicode="&#x25fc;" horiz-adv-x="920" d="M0 0v920h920v-920h-920z" />
</font>
</defs>
</svg>
